<?xml version="1.0" encoding="UTF-8" standalone="no"?>
<svg
   xmlns:dc="http://purl.org/dc/elements/1.1/"
   xmlns:cc="http://creativecommons.org/ns#"
   xmlns:rdf="http://www.w3.org/1999/02/22-rdf-syntax-ns#"
   xmlns:svg="http://www.w3.org/2000/svg"
   xmlns="http://www.w3.org/2000/svg"
   xmlns:sodipodi="http://sodipodi.sourceforge.net/DTD/sodipodi-0.dtd"
   xmlns:inkscape="http://www.inkscape.org/namespaces/inkscape"
   width="380"
   height="420"
   viewBox="0 0 100.54166 111.125"
   version="1.1"
   id="svg2125"
   inkscape:version="1.0.2 (e86c870879, 2021-01-15)"
   sodipodi:docname="bookcover.svg">
  <defs
     id="defs2119" />
  <sodipodi:namedview
     id="base"
     pagecolor="#ffffff"
     bordercolor="#666666"
     borderopacity="1.0"
     inkscape:pageopacity="0.0"
     inkscape:pageshadow="2"
     inkscape:zoom="1.7993275"
     inkscape:cx="311.76887"
     inkscape:cy="214.1285"
     inkscape:document-units="mm"
     inkscape:current-layer="layer1"
     inkscape:document-rotation="0"
     showgrid="false"
     units="px"
     inkscape:window-width="3440"
     inkscape:window-height="1376"
     inkscape:window-x="0"
     inkscape:window-y="27"
     inkscape:window-maximized="1" />
  <metadata
     id="metadata2122">
    <rdf:RDF>
      <cc:Work
         rdf:about="">
        <dc:format>image/svg+xml</dc:format>
        <dc:type
           rdf:resource="http://purl.org/dc/dcmitype/StillImage" />
        <dc:title />
      </cc:Work>
    </rdf:RDF>
  </metadata>
  <g
     inkscape:label="Layer 1"
     inkscape:groupmode="layer"
     id="layer1">
    <rect
       style="fill:#ffffff;stroke:#000000;stroke-width:0.52916667;stroke-miterlimit:4;stroke-dasharray:none;stroke-opacity:1"
       id="rect2706"
       width="100.01248"
       height="110.59582"
       x="0.26458958"
       y="0.26458973" />
    <path
       id="path2203"
       style="color:#000000;font-style:normal;font-variant:normal;font-weight:normal;font-stretch:normal;font-size:medium;line-height:normal;font-family:sans-serif;font-variant-ligatures:normal;font-variant-position:normal;font-variant-caps:normal;font-variant-numeric:normal;font-variant-alternates:normal;font-variant-east-asian:normal;font-feature-settings:normal;font-variation-settings:normal;text-indent:0;text-align:start;text-decoration:none;text-decoration-line:none;text-decoration-style:solid;text-decoration-color:#000000;letter-spacing:normal;word-spacing:normal;text-transform:none;writing-mode:lr-tb;direction:ltr;text-orientation:mixed;dominant-baseline:auto;baseline-shift:baseline;text-anchor:start;white-space:normal;shape-padding:0;shape-margin:0;inline-size:0;clip-rule:nonzero;display:inline;overflow:visible;visibility:visible;isolation:auto;mix-blend-mode:normal;color-interpolation:sRGB;color-interpolation-filters:linearRGB;solid-color:#000000;solid-opacity:1;vector-effect:none;fill:#decd87;fill-opacity:1;fill-rule:nonzero;stroke:none;stroke-width:0.52121;stroke-linecap:butt;stroke-linejoin:miter;stroke-miterlimit:4;stroke-dasharray:none;stroke-dashoffset:0.148135;stroke-opacity:1;color-rendering:auto;image-rendering:auto;shape-rendering:auto;text-rendering:auto;enable-background:accumulate;stop-color:#000000"
       d="m 7.1254986,10.945035 v 3.67e-4 c -0.6371934,0 -1.1588913,0.522054 -1.1588913,1.159251 0,0.637189 0.5216979,1.15925 1.1588913,1.15925 0.5480123,0 1.0110385,-0.386523 1.1301613,-0.899963 0.1234656,2.7e-5 2.4267661,5.51e-4 3.2579671,7.17e-4 0.119035,0.513051 0.580268,0.899245 1.128007,0.899245 0.547498,0 1.010144,-0.38581 1.129802,-0.898527 1.189518,2.76e-4 1.743453,3.86e-4 3.258686,7.17e-4 0.119567,0.512335 0.580422,0.897808 1.127647,0.897808 0.547105,0 1.009378,-0.38528 1.129443,-0.897449 1.608611,3.68e-4 1.70705,3.86e-4 3.259046,7.17e-4 0.119939,0.511828 0.580787,0.896731 1.127647,0.896731 0.546713,0 1.008614,-0.384759 1.129083,-0.896372 1.3807,3.13e-4 2.318292,5.34e-4 3.259764,7.17e-4 0.120344,0.511272 0.580825,0.895654 1.127288,0.895654 0.546201,0 1.007721,-0.384046 1.128725,-0.894935 0.309891,6.9e-5 1.982953,3.67e-4 1.999958,3.67e-4 2.274587,0 3.670114,0.651662 4.652803,1.623238 0.982688,0.971584 1.552689,2.291143 2.071424,3.643307 0.518714,1.352171 0.982272,2.733006 1.818959,3.80168 0.409248,0.522704 0.914509,0.963662 1.548182,1.27848 l -8.932118,0.0039 c -0.119886,-0.511925 -0.581022,-0.896731 -1.128005,-0.896731 -0.54723,0 -1.008366,0.385191 -1.128008,0.897449 l -3.251144,0.0014 c -0.109037,-0.52663 -0.579562,-0.926179 -1.136984,-0.926179 -0.557791,0 -1.027179,0.400119 -1.135549,0.927257 l -3.243243,0.0014 c -0.108078,-0.527847 -0.579046,-0.928693 -1.137343,-0.928693 -0.558543,0 -1.028365,0.401224 -1.135908,0.929411 l -3.242525,0.0014 c -0.107251,-0.528895 -0.578657,-0.930847 -1.137703,-0.930847 -0.559411,0 -1.029693,0.402508 -1.136267,0.931925 l -3.241807,0.0014 c -0.106278,-0.530119 -0.578145,-0.933362 -1.138062,-0.933362 -0.637195,0 -1.15925,0.522055 -1.15925,1.159251 0,0.637196 0.522055,1.158891 1.15925,1.158891 0.534999,0 0.988688,-0.368204 1.120825,-0.863333 l 3.275564,-0.0014 c 0.131318,0.495844 0.584233,0.864769 1.119747,0.864769 0.535908,0 0.99028,-0.369453 1.121542,-0.865846 l 3.274128,-0.0014 c 0.130449,0.497116 0.584043,0.867283 1.120466,0.867283 0.536782,0 0.991487,-0.370738 1.121901,-0.868361 l 3.273409,-0.0014 c 0.129594,0.498346 0.583521,0.869797 1.120825,0.869797 0.537575,0 0.992976,-0.371787 1.122619,-0.870515 l 3.265151,-0.0014 c 0.119106,0.513058 0.580623,0.899245 1.128366,0.899245 0.548131,0 1.010021,-0.386716 1.128724,-0.900323 l 11.377747,-0.0047 20.981785,-0.009 c -0.634827,0.314887 -1.140934,0.756172 -1.550695,1.279557 -0.83668,1.068668 -1.301309,2.449523 -1.820037,3.80168 -0.518729,1.352178 -1.087299,2.671371 -2.069987,3.642948 -0.982683,0.971575 -2.379659,1.622159 -4.65424,1.622159 -0.0125,0 -1.623838,3.68e-4 -1.840508,3.68e-4 -0.121934,-0.509542 -0.582717,-0.892064 -1.128005,-0.892064 -0.545555,0 -1.005288,0.382851 -1.126572,0.892781 -0.763828,1.75e-4 -2.070978,5.52e-4 -3.261198,7.36e-4 -0.121415,-0.510265 -0.582562,-0.8935 -1.128366,-0.8935 -0.54595,0 -1.006058,0.383379 -1.12693,0.893858 -1.399614,3.68e-4 -1.680862,3.68e-4 -3.260481,7.36e-4 -0.121003,-0.510815 -0.582526,-0.894578 -1.128724,-0.894578 -0.546465,0 -1.006945,0.3841 -1.127289,0.895297 -1.618627,3.68e-4 -1.707302,3.68e-4 -3.259763,7.35e-4 -0.120477,-0.511535 -0.58237,-0.896013 -1.129083,-0.896013 -0.546979,0 -1.007833,0.384813 -1.127649,0.896732 -1.421144,3.68e-4 -2.150021,5.52e-4 -3.259043,7.36e-4 -0.119949,-0.512258 -0.582216,-0.89745 -1.129444,-0.89745 -0.547375,0 -1.008601,0.385343 -1.128007,0.89781 -0.807458,1.84e-4 -3.00873,7.36e-4 -3.258326,7.36e-4 -0.119531,-0.512815 -0.582179,-0.898527 -1.129802,-0.898527 -0.637189,0 -1.158893,0.521703 -1.158893,1.158892 0,0.637196 0.521704,1.15889 1.158893,1.15889 0.547498,0 1.010146,-0.385449 1.129802,-0.898166 0.250603,-5e-5 2.450083,-5.52e-4 3.258326,-7.36e-4 0.119031,0.513058 0.580271,0.899246 1.128007,0.899246 0.547896,0 1.010907,-0.386332 1.130161,-0.899604 1.109252,-1.84e-4 1.836735,-3.68e-4 3.257609,-7.36e-4 0.118626,0.513607 0.58024,0.900324 1.128366,0.900324 0.548408,0 1.01181,-0.387046 1.130519,-0.901041 1.551398,-3.68e-4 1.639687,-3.68e-4 3.25689,-7.35e-4 0.118093,0.51433 0.580086,0.901759 1.128726,0.901759 0.548923,0 1.012704,-0.387766 1.130879,-0.902478 1.577299,-3.68e-4 1.858649,-3.68e-4 3.256171,-7.36e-4 0.117558,0.515053 0.579925,0.903196 1.129085,0.903196 0.549286,0 1.013086,-0.388336 1.13088,-0.903556 1.187405,-1.84e-4 2.493629,-5.52e-4 3.255812,-7.36e-4 0.117141,0.515608 0.579893,0.904273 1.129444,0.904273 0.549798,0 1.013979,-0.389049 1.131238,-0.904992 0.215385,-4.7e-5 1.825427,-3.67e-4 1.837275,-3.67e-4 2.37607,0 3.942952,-0.706864 5.020905,-1.772634 1.077959,-1.065762 1.667274,-2.461817 2.190652,-3.8261 0.523378,-1.364292 0.984439,-2.700133 1.742827,-3.668805 0.7584,-0.968671 1.788445,-1.59774 3.584769,-1.59774 v -0.0036 l 5.573595,-0.0029 c 0.122386,0.508825 0.582513,0.890626 1.127288,0.890626 0.545046,0 1.004691,-0.382137 1.12657,-0.891345 l 3.261558,-0.0011 c 0.121574,0.50993 0.582447,0.89278 1.128008,0.89278 0.54595,0 1.006332,-0.383378 1.127288,-0.893858 l 3.260123,-0.0014 c 0.120648,0.511202 0.582253,0.895295 1.128724,0.895295 0.546833,0 1.007603,-0.384663 1.127647,-0.896372 l 3.259405,-0.0014 c 0.119739,0.512433 0.581738,0.897809 1.129083,0.897809 0.637189,0 1.159251,-0.521695 1.159251,-1.158891 0,-0.637197 -0.522062,-1.159251 -1.159251,-1.159251 -0.547735,0 -1.010114,0.386187 -1.129443,0.899245 l -3.257967,0.0014 c -0.118572,-0.51378 -0.580474,-0.900681 -1.128725,-0.900681 -0.548646,0 -1.011777,0.387429 -1.130161,0.901759 l -3.256531,0.0014 c -0.117633,-0.515046 -0.580283,-0.903196 -1.129443,-0.903196 -0.549556,0 -1.013441,0.388672 -1.13088,0.904273 l -3.255095,0.0011 c -0.116674,-0.516324 -0.58009,-0.905709 -1.130161,-0.905709 -0.550341,0 -1.014993,0.389721 -1.131598,0.906427 l -28.995264,0.01257 h -0.0036 c -1.794044,-6.99e-4 -2.821867,-0.629729 -3.579742,-1.59774 -0.7584,-0.968672 -1.220884,-2.304521 -1.744263,-3.668805 -0.523376,-1.364283 -1.1127,-2.760338 -2.190652,-3.8261 -1.077945,-1.065763 -2.643398,-1.77407 -5.019468,-1.77407 -0.01613,0 -1.689254,-2.94e-4 -1.997803,-3.68e-4 -0.118175,-0.514712 -0.581956,-0.902477 -1.130879,-0.902477 -0.548646,0 -1.010633,0.387429 -1.128725,0.901759 -0.939971,-2.21e-4 -1.878075,-6.7e-5 -3.25689,-3.68e-4 -0.11871,-0.513996 -0.582117,-0.90104 -1.13052,-0.90104 -0.548251,0 -1.009871,0.3869 -1.128366,0.900681 -1.551086,-3.49e-4 -1.649584,-7.35e-4 -3.257609,-0.0014 -0.119248,-0.513266 -0.58227,-0.899604 -1.130161,-0.899604 -0.547739,0 -1.008972,0.386187 -1.128007,0.899245 -1.515408,-3.5e-4 -2.068214,-4.6e-4 -3.258326,-7.17e-4 -0.119658,-0.512718 -0.582304,-0.898527 -1.129802,-0.898527 -0.547225,0 -1.008081,0.385473 -1.127648,0.897808 -0.832512,-1.83e-4 -3.1344027,-7.17e-4 -3.2590448,-7.17e-4 -0.1201909,-0.511994 -0.5824592,-0.89709 -1.1294431,-0.89709 z m 0,0.521806 c 0.3555115,0 0.6395987,0.282289 0.6395987,0.637803 0,0.355507 -0.2840872,0.638162 -0.6395987,0.638162 -0.3555108,0 -0.6378031,-0.282655 -0.6378031,-0.638162 0,-0.355514 0.2822923,-0.637803 0.6378031,-0.637803 z m 5.5161354,0 c 0.355511,0 0.639599,0.282289 0.639599,0.637803 0,0.355507 -0.284088,0.638162 -0.639599,0.638162 -0.355511,0 -0.637803,-0.282655 -0.637803,-0.638162 0,-0.355514 0.282292,-0.637803 0.637803,-0.637803 z m 5.516135,0 c 0.355512,0 0.639599,0.282289 0.639599,0.637803 0,0.355507 -0.284087,0.638162 -0.639599,0.638162 -0.35551,0 -0.637803,-0.282655 -0.637803,-0.638162 0,-0.355514 0.282293,-0.637803 0.637803,-0.637803 z m 5.516136,0 c 0.355513,0 0.639598,0.282289 0.639598,0.637803 0,0.355507 -0.284085,0.638162 -0.639598,0.638162 -0.355508,0 -0.637803,-0.282655 -0.637803,-0.638162 0,-0.355514 0.282295,-0.637803 0.637803,-0.637803 z m 5.516135,0 c 0.355514,0 0.639598,0.282289 0.639598,0.637803 0,0.355507 -0.284084,0.638162 -0.639598,0.638162 -0.355507,0 -0.637803,-0.282655 -0.637803,-0.638162 0,-0.355514 0.282296,-0.637803 0.637803,-0.637803 z M 10.285425,22.317036 c 0.355511,0 0.63924,0.282649 0.63924,0.638163 0,0.355513 -0.283729,0.637803 -0.63924,0.637803 -0.3555112,0 -0.6378027,-0.28229 -0.6378027,-0.637803 0,-0.355514 0.2822915,-0.638163 0.6378027,-0.638163 z m 5.516136,0 c 0.355511,0 0.639239,0.282649 0.639239,0.638163 0,0.355513 -0.283728,0.637803 -0.639239,0.637803 -0.355511,0 -0.637803,-0.28229 -0.637803,-0.637803 0,-0.355514 0.282292,-0.638163 0.637803,-0.638163 z m 5.516136,0 c 0.355513,0 0.639239,0.282649 0.639239,0.638163 0,0.355513 -0.283726,0.637803 -0.639239,0.637803 -0.355515,0 -0.637804,-0.28229 -0.637804,-0.637803 0,-0.355514 0.282289,-0.638163 0.637804,-0.638163 z m 5.516135,0 c 0.355513,0 0.63924,0.282649 0.63924,0.638163 0,0.355513 -0.283727,0.637803 -0.63924,0.637803 -0.355515,0 -0.637803,-0.28229 -0.637803,-0.637803 0,-0.355514 0.282288,-0.638163 0.637803,-0.638163 z m 48.149469,0 c 0.355513,0 0.637803,0.282649 0.637803,0.638163 0,0.355513 -0.28229,0.637803 -0.637803,0.637803 -0.355513,0 -0.639239,-0.28229 -0.639239,-0.637803 0,-0.355514 0.283726,-0.638163 0.639239,-0.638163 z m 5.516136,0 c 0.355513,0 0.637803,0.282649 0.637803,0.638163 0,0.355513 -0.28229,0.637803 -0.637803,0.637803 -0.355513,0 -0.63924,-0.28229 -0.63924,-0.637803 0,-0.355514 0.283727,-0.638163 0.63924,-0.638163 z m 5.516135,0 c 0.355508,0 0.637803,0.282649 0.637803,0.638163 0,0.355513 -0.282295,0.637803 -0.637803,0.637803 -0.355513,0 -0.639239,-0.28229 -0.639239,-0.637803 0,-0.355514 0.283726,-0.638163 0.639239,-0.638163 z m 5.516135,0 c 0.355508,0 0.637804,0.282649 0.637804,0.638163 0,0.355513 -0.282296,0.637803 -0.637804,0.637803 -0.355513,0 -0.639239,-0.28229 -0.639239,-0.637803 0,-0.355514 0.283726,-0.638163 0.639239,-0.638163 z m -59.181739,0.02729 c 0.355513,0 0.638161,0.282296 0.638161,0.637803 0,0.355513 -0.282648,0.638162 -0.638161,0.638162 -0.355515,0 -0.637803,-0.282649 -0.637803,-0.638162 0,-0.355507 0.282288,-0.637803 0.637803,-0.637803 z m -7.155893,10.858455 c 0.355513,0 0.639597,0.282296 0.639597,0.637804 0,0.355513 -0.284084,0.638161 -0.639597,0.638161 -0.355508,0 -0.637803,-0.282648 -0.637803,-0.638161 0,-0.355508 0.282295,-0.637804 0.637803,-0.637804 z m 5.516135,0 c 0.355513,0 0.639598,0.282296 0.639598,0.637804 0,0.355513 -0.284085,0.638161 -0.639598,0.638161 -0.355507,0 -0.637803,-0.282648 -0.637803,-0.638161 0,-0.355508 0.282296,-0.637804 0.637803,-0.637804 z m 5.516136,0 c 0.355513,0 0.639597,0.282296 0.639597,0.637804 0,0.355513 -0.284084,0.638161 -0.639597,0.638161 -0.355508,0 -0.637804,-0.282648 -0.637804,-0.638161 0,-0.355508 0.282296,-0.637804 0.637804,-0.637804 z m 5.516135,0 c 0.355513,0 0.639598,0.282296 0.639598,0.637804 0,0.355513 -0.284085,0.638161 -0.639598,0.638161 -0.355508,0 -0.637803,-0.282648 -0.637803,-0.638161 0,-0.355508 0.282295,-0.637804 0.637803,-0.637804 z m 5.516135,0 c 0.355513,0 0.639598,0.282296 0.639598,0.637804 0,0.355513 -0.284085,0.638161 -0.639598,0.638161 -0.355507,0 -0.637803,-0.282648 -0.637803,-0.638161 0,-0.355508 0.282296,-0.637804 0.637803,-0.637804 z m 5.516136,0 c 0.355513,0 0.639597,0.282296 0.639597,0.637804 0,0.355513 -0.284084,0.638161 -0.639597,0.638161 -0.355508,0 -0.637803,-0.282648 -0.637803,-0.638161 0,-0.355508 0.282295,-0.637804 0.637803,-0.637804 z" />
    <path
       d="m 22.371166,30.224785 q 0.02022,-0.328828 0.133896,-0.499354 0.117703,-0.174577 0.409997,-0.174619 0.182681,-2.8e-5 0.312601,0.1055 0.12992,0.101469 0.129948,0.284156 1.4e-5,0.105549 -0.02029,0.211104 -0.02029,0.105549 -0.01216,0.219221 0.01626,0.138023 0.121824,0.251675 0.105569,0.113651 0.267964,0.198879 0.162395,0.08117 0.369447,0.129851 0.207046,0.04468 0.422201,0.04462 0.219221,-3.5e-5 0.434376,-0.03662 0.219207,-0.04059 0.393757,-0.14621 0.178608,-0.105576 0.288187,-0.28827 0.109586,-0.182702 0.109544,-0.474989 -3.4e-5,-0.190805 -0.09343,-0.35723 -0.0934,-0.170499 -0.239564,-0.308502 -0.146168,-0.142068 -0.324804,-0.255705 -0.174578,-0.113652 -0.336973,-0.198873 -0.231417,-0.117696 -0.475009,-0.227268 -0.239534,-0.113638 -0.470951,-0.235392 -0.227352,-0.125813 -0.434411,-0.271926 -0.203008,-0.150178 -0.3573,-0.349071 -0.154292,-0.198901 -0.243641,-0.4587 -0.08935,-0.263864 -0.0894,-0.608925 -5.5e-5,-0.385661 0.162291,-0.665801 0.166398,-0.280132 0.434307,-0.462862 0.267908,-0.182722 0.612956,-0.268019 0.349113,-0.08936 0.714481,-0.08942 0.324762,-4.9e-5 0.629246,0.05678 0.304477,0.05678 0.544011,0.186663 0.239534,0.125813 0.397891,0.340947 0.158358,0.211076 0.190881,0.519604 0.0081,0.113666 -0.02842,0.20298 -0.03649,0.08526 -0.101469,0.146161 -0.06498,0.05685 -0.150192,0.08934 -0.08119,0.02842 -0.166439,0.02842 -0.129907,2.1e-5 -0.219221,-0.04051 -0.08932,-0.04059 -0.146161,-0.101469 -0.05685,-0.06088 -0.08528,-0.138017 -0.02842,-0.07713 -0.03655,-0.150205 -0.06088,-0.09742 -0.158351,-0.158295 -0.09744,-0.06498 -0.219228,-0.101462 -0.117737,-0.04059 -0.247644,-0.05268 -0.129913,-0.01626 -0.251702,-0.01619 -0.170498,2.8e-5 -0.340996,0.03662 -0.16644,0.03655 -0.304456,0.117773 -0.13801,0.08122 -0.223245,0.207066 -0.08524,0.125861 -0.08521,0.308549 3.5e-5,0.215155 0.101545,0.381588 0.101518,0.166426 0.255796,0.296311 0.154285,0.129886 0.341045,0.235406 0.190818,0.105521 0.369454,0.194807 0.21517,0.10958 0.446587,0.235393 0.231417,0.121747 0.450658,0.267867 0.2233,0.142054 0.422243,0.312531 0.198942,0.170463 0.349182,0.381546 0.150234,0.207018 0.235525,0.454641 0.08935,0.247616 0.08939,0.548028 4.9e-5,0.32071 -0.08922,0.57242 -0.08928,0.251709 -0.243516,0.442528 -0.154236,0.190832 -0.361254,0.324824 -0.207017,0.134 -0.446523,0.219291 -0.239507,0.08528 -0.499312,0.121859 -0.255747,0.04065 -0.511509,0.04065 -0.215155,3.5e-5 -0.462792,-0.03648 -0.243586,-0.03648 -0.483113,-0.113603 -0.239527,-0.08115 -0.458761,-0.20291 -0.215184,-0.12582 -0.381651,-0.300356 -0.162409,-0.178601 -0.255817,-0.405925 -0.0934,-0.231382 -0.08533,-0.519611 z"
       style="font-style:normal;font-variant:normal;font-weight:normal;font-stretch:normal;font-size:11.9636px;line-height:0.85;font-family:'Autour One';-inkscape-font-specification:'Autour One, Normal';font-variant-ligatures:normal;font-variant-caps:normal;font-variant-numeric:normal;font-variant-east-asian:normal;letter-spacing:0px;word-spacing:0px;fill:#393c2e;fill-opacity:1;stroke:none;stroke-width:0.180967"
       id="path1975" />
    <path
       d="m 27.827022,28.5433 q -1.04e-4,-0.722605 0.202785,-1.319397 0.206948,-0.596785 0.580371,-1.027158 0.377481,-0.430374 0.905195,-0.665905 0.531773,-0.239603 1.177246,-0.239694 0.682013,-1.04e-4 1.20168,0.23934 0.523718,0.235378 0.876967,0.665647 0.357306,0.430262 0.540077,1.026992 0.182771,0.596736 0.182882,1.319341 9.7e-5,0.686079 -0.198734,1.282871 -0.198831,0.592726 -0.568195,1.031223 -0.369357,0.438484 -0.893006,0.690263 -0.523655,0.251772 -1.173187,0.251862 -0.430318,7e-5 -0.807882,-0.113547 -0.377557,-0.11361 -0.694237,-0.324665 -0.312622,-0.211055 -0.560301,-0.503308 -0.247678,-0.296318 -0.422291,-0.657593 -0.17056,-0.361275 -0.25993,-0.779403 -0.08937,-0.418128 -0.08944,-0.876869 z m 0.925585,-1.32e-4 q 4.9e-5,0.304477 0.05692,0.604874 0.05685,0.296339 0.16653,0.56832 0.113707,0.267916 0.276123,0.499284 0.166481,0.227317 0.377606,0.397787 0.215183,0.166419 0.47501,0.263809 0.263885,0.09333 0.568355,0.09328 0.32071,-4.9e-5 0.584574,-0.09345 0.263858,-0.09747 0.474934,-0.263947 0.211069,-0.17054 0.365305,-0.397899 0.158288,-0.231417 0.259736,-0.499367 0.105514,-0.272009 0.154181,-0.568369 0.05275,-0.300411 0.05268,-0.604888 -7.7e-5,-0.48715 -0.113805,-0.921513 -0.113734,-0.438413 -0.349245,-0.771265 -0.231445,-0.332851 -0.588717,-0.527665 -0.353213,-0.194808 -0.840363,-0.194738 -0.458734,6.9e-5 -0.815957,0.174681 -0.357217,0.17462 -0.604805,0.4913 -0.24353,0.316687 -0.373374,0.763266 -0.125778,0.442514 -0.125702,0.986497 z"
       style="font-style:normal;font-variant:normal;font-weight:normal;font-stretch:normal;font-size:11.9636px;line-height:0.85;font-family:'Autour One';-inkscape-font-specification:'Autour One, Normal';font-variant-ligatures:normal;font-variant-caps:normal;font-variant-numeric:normal;font-variant-east-asian:normal;letter-spacing:0px;word-spacing:0px;fill:#393c2e;fill-opacity:1;stroke:none;stroke-width:0.180967"
       id="path1977" />
    <path
       d="m 34.84609,28.696543 q -0.0042,-0.64548 -1.88e-4,-1.295019 0.008,-0.65359 0.0079,-1.368078 -2.8e-5,-0.170505 0.01619,-0.308542 0.02029,-0.138023 0.06901,-0.235462 0.04872,-0.09744 0.129886,-0.146168 0.08524,-0.05275 0.215155,-0.05282 0.296346,-4.1e-5 0.418163,0.174508 0.12181,0.170484 0.121852,0.466837 1.4e-5,0.08525 -0.0042,0.182681 -0.0042,0.09743 -0.0081,0.231396 -0.0042,0.133965 -0.01209,0.324769 -0.0042,0.190805 -0.0081,0.458741 -0.0042,0.26793 -0.0081,0.633298 -0.0042,0.365361 -0.0042,0.852511 4.9e-5,0.292294 0.01633,0.580523 0.02036,0.284164 0.07315,0.543976 0.05685,0.255748 0.158392,0.474948 0.101524,0.219206 0.259875,0.381567 0.162402,0.158302 0.393812,0.247574 0.235475,0.08928 0.556179,0.08923 0.369427,-5.5e-5 0.62516,-0.150296 0.255733,-0.150247 0.414014,-0.438497 0.16234,-0.288257 0.231292,-0.710464 0.07301,-0.426266 0.07293,-0.974315 -1.46e-4,-0.986483 -0.01647,-1.668496 -0.01633,-0.682013 -0.02453,-0.986483 -0.0042,-0.06088 -0.0042,-0.125841 -7e-6,-0.06498 -7e-6,-0.07713 -4.8e-5,-0.288229 0.125786,-0.397857 0.129892,-0.113693 0.345047,-0.113721 0.138031,-2.1e-5 0.231404,0.04059 0.09744,0.04058 0.154285,0.105521 0.05685,0.06498 0.08121,0.14614 0.02439,0.08118 0.02439,0.158316 2e-5,0.133964 -0.01216,0.276053 -0.0081,0.13803 -0.0081,0.288236 4.8e-5,0.324769 0.0042,0.600816 0.0042,0.276053 0.01223,0.527749 4.2e-5,0.292287 0.0082,0.592699 0.0081,0.296353 0.0082,0.641414 1.11e-4,0.742912 -0.141887,1.327514 -0.13794,0.580544 -0.426113,0.982487 -0.288174,0.401936 -0.72658,0.613103 -0.434342,0.211159 -1.022989,0.211249 -0.296346,4.2e-5 -0.584589,-0.05678 -0.288236,-0.05268 -0.548069,-0.186662 -0.25984,-0.13393 -0.483148,-0.361233 -0.219255,-0.227303 -0.381685,-0.572344 -0.162437,-0.345041 -0.255879,-0.820002 -0.09344,-0.474954 -0.09353,-1.108251 z"
       style="font-style:normal;font-variant:normal;font-weight:normal;font-stretch:normal;font-size:11.9636px;line-height:0.85;font-family:'Autour One';-inkscape-font-specification:'Autour One, Normal';font-variant-ligatures:normal;font-variant-caps:normal;font-variant-numeric:normal;font-variant-east-asian:normal;letter-spacing:0px;word-spacing:0px;fill:#393c2e;fill-opacity:1;stroke:none;stroke-width:0.180967"
       id="path1979" />
    <path
       d="m 41.110425,31.228808 q -1.4e-5,-0.08931 0.0081,-0.174563 0.0081,-0.08526 0.01619,-0.158337 -8.3e-5,-0.564282 -1.53e-4,-1.039257 -6.9e-5,-0.474968 -1.32e-4,-0.884993 -6.2e-5,-0.414077 -1.11e-4,-0.775379 -5.6e-5,-0.361303 -1.04e-4,-0.698255 -4.9e-5,-0.341003 -9.8e-5,-0.665772 0.0042,-0.328828 0.0042,-0.669831 -0.02029,-0.05685 -0.04065,-0.158322 -0.01626,-0.101483 -0.01626,-0.190791 -1.4e-5,-0.08525 0.02432,-0.170512 0.02842,-0.08526 0.08117,-0.15022 0.05685,-0.06901 0.138009,-0.109627 0.08118,-0.04059 0.186732,-0.04059 0.170505,-2.1e-5 0.345069,0.02022 0.17457,0.02029 0.393784,0.02022 0.182688,-2.8e-5 0.365361,-0.01633 0.182681,-0.02029 0.389719,-0.02446 0.612998,-9e-5 1.108293,0.121623 0.499347,0.12172 0.848509,0.377418 0.35322,0.255706 0.54408,0.653521 0.19086,0.393749 0.190943,0.941798 7.7e-5,0.519625 -0.146008,0.925606 -0.142026,0.401922 -0.369322,0.702368 -0.223231,0.300439 -0.503315,0.50346 -0.276025,0.198964 -0.539883,0.304554 0.03655,0.219214 0.113728,0.414056 0.08122,0.190797 0.203029,0.336923 0.125868,0.14612 0.292329,0.231355 0.166453,0.08522 0.373492,0.08519 0.154264,-2e-5 0.280105,-0.04878 0.129899,-0.04872 0.223251,-0.190832 0.05685,-0.0812 0.13801,-0.14211 0.08118,-0.06498 0.207024,-0.06498 0.219221,-3.5e-5 0.341024,0.121734 0.12181,0.121768 0.121838,0.308514 2.1e-5,0.174557 -0.101441,0.3329 -0.09741,0.158337 -0.28007,0.280154 -0.178609,0.117752 -0.434349,0.186801 -0.255747,0.07312 -0.568334,0.07316 -0.288236,4.2e-5 -0.523704,-0.08517 -0.23141,-0.08116 -0.41817,-0.219165 -0.182702,-0.142061 -0.324818,-0.320663 -0.14211,-0.182659 -0.243627,-0.377501 -0.101518,-0.198901 -0.166503,-0.393757 -0.06498,-0.194856 -0.101545,-0.365354 -0.04872,7e-6 -0.129906,2.1e-5 -0.08119,1.4e-5 -0.166447,2.1e-5 -0.08525,1.4e-5 -0.170498,2.8e-5 -0.0812,-0.0042 -0.133972,-0.0042 -0.117724,-0.0042 -0.292287,-0.0042 -0.170505,-0.0042 -0.312594,-0.0042 l 9e-5,0.592698 q 0.0081,0.190805 0.04879,0.373478 0.04065,0.178615 0.04065,0.36942 1.4e-5,0.117724 -0.04872,0.198921 -0.04462,0.0812 -0.11771,0.133986 -0.07307,0.05685 -0.158315,0.08122 -0.08524,0.02439 -0.162375,0.02439 -0.121789,2.1e-5 -0.223286,-0.04462 -0.101497,-0.04059 -0.174577,-0.113637 -0.07309,-0.07712 -0.117759,-0.178608 -0.04059,-0.105549 -0.04065,-0.23139 z m 0.949637,-2.078653 q 0.105556,0.0042 0.247638,0.0081 0.142088,0.0042 0.271995,0.0081 0.129913,0.0042 0.231403,0.0081 0.10149,-1.4e-5 0.129906,-2.1e-5 0.548042,-7.6e-5 0.897148,-0.150331 0.353164,-0.150254 0.552044,-0.397926 0.198887,-0.247665 0.271912,-0.568383 0.07708,-0.320717 0.07703,-0.657669 -4.2e-5,-0.296346 -0.09344,-0.499312 -0.0934,-0.207024 -0.247686,-0.340975 -0.154285,-0.133937 -0.349155,-0.211041 -0.194876,-0.0771 -0.397863,-0.11361 -0.198922,-0.03655 -0.393785,-0.04462 -0.190804,-0.0081 -0.336951,-0.0081 -0.207039,2.8e-5 -0.422194,0.0082 -0.211097,0.0042 -0.458734,0.0082 -0.0081,0.154264 -0.01216,0.280119 2e-5,0.125847 -0.0042,0.247637 2.1e-5,0.117731 3.5e-5,0.243578 2e-5,0.121783 4.1e-5,0.276047 4.2e-5,0.276053 7.7e-5,0.515574 0.0042,0.235454 0.0082,0.462785 0.0042,0.223279 0.0082,0.450617 0.0081,0.227338 0.02036,0.474975 z m 1.90407,0.779153 q -0.0042,7e-6 -0.0042,0.0042 z m -0.0081,0.0042 h 0.0042 z"
       style="font-style:normal;font-variant:normal;font-weight:normal;font-stretch:normal;font-size:11.9636px;line-height:0.85;font-family:'Autour One';-inkscape-font-specification:'Autour One, Normal';font-variant-ligatures:normal;font-variant-caps:normal;font-variant-numeric:normal;font-variant-east-asian:normal;letter-spacing:0px;word-spacing:0px;fill:#393c2e;fill-opacity:1;stroke:none;stroke-width:0.180967"
       id="path1981" />
    <path
       d="m 47.102008,28.60948 q -8.3e-5,-0.584582 0.125695,-1.055512 0.129837,-0.474989 0.353061,-0.84445 0.223223,-0.369455 0.523593,-0.637433 0.30037,-0.267978 0.649469,-0.44259 0.349099,-0.174612 0.726629,-0.255859 0.381595,-0.08532 0.759131,-0.08537 0.345069,-4.8e-5 0.677969,0.06491 0.332893,0.06081 0.657676,0.174467 0.09744,0.03655 0.19487,0.07305 0.101497,0.03245 0.178636,0.08522 0.0812,0.05275 0.129927,0.133943 0.04872,0.08118 0.04878,0.207032 2.1e-5,0.146147 -0.04872,0.243586 -0.04462,0.09338 -0.11771,0.150226 -0.07306,0.05685 -0.162367,0.08121 -0.08525,0.02432 -0.166439,0.02432 -0.05685,7e-6 -0.121797,-0.01626 -0.06498,-0.02029 -0.133971,-0.04872 -0.06901,-0.02842 -0.133979,-0.06498 -0.06498,-0.04059 -0.117738,-0.07711 -0.146154,-0.06088 -0.276067,-0.08927 -0.125848,-0.03245 -0.243579,-0.04462 -0.117731,-0.01626 -0.231403,-0.01619 -0.113665,-0.0042 -0.227338,-0.0042 -0.255754,4.2e-5 -0.511501,0.06095 -0.25574,0.05692 -0.49524,0.182757 -0.23544,0.121824 -0.442451,0.308598 -0.207011,0.186773 -0.36124,0.446607 -0.150164,0.255775 -0.23943,0.584616 -0.0852,0.328842 -0.08514,0.734802 9.8e-5,0.673896 0.190972,1.140719 0.194925,0.462772 0.503502,0.750952 0.312629,0.28818 0.702368,0.418031 0.38974,0.125792 0.787583,0.12573 0.18268,-2.1e-5 0.357244,-0.02036 0.178615,-0.02439 0.328814,-0.05692 0.154264,-0.03655 0.271981,-0.07717 0.117724,-0.04469 0.178615,-0.08934 0.121768,-0.105563 0.215134,-0.158358 0.09336,-0.05685 0.215149,-0.05692 0.09337,-1.4e-5 0.174563,0.02029 0.08526,0.02029 0.146161,0.07305 0.06088,0.04872 0.09745,0.129893 0.03655,0.08119 0.03655,0.20298 2.1e-5,0.170505 -0.117682,0.3126 -0.113652,0.138044 -0.369392,0.259875 v -0.0042 q -0.08524,0.04872 -0.251675,0.109648 -0.162374,0.06088 -0.369405,0.113721 -0.202973,0.04872 -0.430311,0.08126 -0.227331,0.03655 -0.446552,0.03662 -0.499325,7e-5 -0.925605,-0.117599 -0.422215,-0.121726 -0.77137,-0.332768 -0.345096,-0.215106 -0.613075,-0.511418 -0.267978,-0.296318 -0.450714,-0.649475 -0.182729,-0.353158 -0.276158,-0.75098 -0.09343,-0.401888 -0.09349,-0.824088 z"
       style="font-style:normal;font-variant:normal;font-weight:normal;font-stretch:normal;font-size:11.9636px;line-height:0.85;font-family:'Autour One';-inkscape-font-specification:'Autour One, Normal';font-variant-ligatures:normal;font-variant-caps:normal;font-variant-numeric:normal;font-variant-east-asian:normal;letter-spacing:0px;word-spacing:0px;fill:#393c2e;fill-opacity:1;stroke:none;stroke-width:0.180967"
       id="path1983" />
    <path
       d="m 53.532797,31.218857 q -1.4e-5,-0.06901 0.01619,-0.146154 0.02029,-0.07713 0.04059,-0.142089 l 0.03648,-0.129906 -0.09409,-4.85527 q -2.8e-5,-0.198921 0.04462,-0.308535 0.04872,-0.109614 0.121761,-0.162402 0.07307,-0.05282 0.16644,-0.06088 0.09742,-0.0081 0.194856,-0.0081 l 2.139413,-3.2e-4 q 0.07307,-0.0081 0.162381,-0.02029 0.09337,-0.01626 0.129899,-0.01626 0.154264,-2.1e-5 0.247644,0.02835 0.09743,0.02842 0.150213,0.08523 0.05685,0.05275 0.07309,0.133951 0.02029,0.08119 0.02029,0.190804 2e-5,0.154264 -0.04059,0.24763 -0.03648,0.09338 -0.105528,0.146168 -0.06498,0.04872 -0.15425,0.06498 -0.08931,0.01626 -0.190805,0.01626 -0.04468,7e-6 -0.117723,1.4e-5 -0.07307,-0.0042 -0.154272,-0.01216 -0.393777,5.6e-5 -0.637356,9e-5 -0.239513,3.5e-5 -0.38566,0.0042 -0.142082,2.1e-5 -0.219214,3.5e-5 -0.07307,1.4e-5 -0.129913,2.1e-5 l -0.377536,5.5e-5 1.87e-4,1.286895 q 0.02439,-7e-6 0.05685,0.0042 0.03655,-7e-6 0.109607,-2.1e-5 0.07307,-6e-6 0.198921,-2.7e-5 0.129906,-2.1e-5 0.345069,-4.9e-5 0.215155,-3.5e-5 0.531807,-8.3e-5 0.316646,-4.2e-5 0.767263,-1.12e-4 0.04469,-7e-6 0.101489,-0.0042 0.05685,-0.0042 0.113666,-0.01216 0.07307,-0.0081 0.170505,-0.01626 0.09742,-0.0081 0.211097,-0.0081 0.109607,-2.1e-5 0.194863,0.04462 0.08526,0.04468 0.142102,0.113652 0.06088,0.06498 0.08934,0.142074 0.03245,0.07713 0.03252,0.146141 3.5e-5,0.21922 -0.146098,0.320731 -0.142075,0.101511 -0.369413,0.101546 l -2.549424,0.0049 3.61e-4,2.431701 q 0.401895,-6.3e-5 0.807861,0.01202 0.40596,0.01209 0.848453,0.01202 0.12179,-2.1e-5 0.22328,-0.01216 0.10149,-0.01216 0.194856,-0.02842 0.08525,-0.01216 0.170498,-0.02029 0.08931,-0.01216 0.194863,-0.01216 0.121789,-1.4e-5 0.223279,0.02029 0.105555,0.01626 0.182694,0.06498 0.07714,0.04469 0.121803,0.125827 0.04469,0.07712 0.04469,0.198914 2.8e-5,0.178622 -0.06088,0.276061 -0.06088,0.09745 -0.166419,0.146175 -0.101483,0.04468 -0.235454,0.05692 -0.1299,0.0081 -0.271988,0.0082 L 54.015863,31.6785 Q 53.910315,31.678521 53.821,31.65411 53.73574,31.62979 53.670781,31.577 53.605801,31.52015 53.56927,31.434932 53.53272,31.345622 53.53272,31.219777 Z"
       style="font-style:normal;font-variant:normal;font-weight:normal;font-stretch:normal;font-size:11.9636px;line-height:0.85;font-family:'Autour One';-inkscape-font-specification:'Autour One, Normal';font-variant-ligatures:normal;font-variant-caps:normal;font-variant-numeric:normal;font-variant-east-asian:normal;letter-spacing:0px;word-spacing:0px;fill:#393c2e;fill-opacity:1;stroke:none;stroke-width:0.180967"
       id="path1985" />
    <path
       d="m 69.649413,31.269254 q -0.154327,-0.422173 -0.320836,-0.884944 -0.166516,-0.462772 -0.341149,-0.925537 -0.170568,-0.46683 -0.341142,-0.921484 -0.16651,-0.454641 -0.320829,-0.864645 -0.150268,-0.414056 -0.284289,-0.767221 -0.13402,-0.353165 -0.235545,-0.617022 -0.05282,-0.133965 -0.09747,-0.27604 -0.04059,-0.142081 -0.04065,-0.267929 -6.3e-5,-0.442493 0.495204,-0.442563 0.05685,-1.4e-5 0.109614,0.01216 0.05685,0.0081 0.109614,0.04872 0.05685,0.04058 0.105569,0.117717 0.05282,0.07307 0.101518,0.207024 0.316784,0.884945 0.556395,1.562865 0.239617,0.677913 0.422381,1.205634 0.186816,0.527721 0.320843,0.93366 0.138086,0.405939 0.247748,0.74287 0.113617,-0.332907 0.215065,-0.629267 0.101449,-0.296367 0.198831,-0.580551 0.09739,-0.28825 0.198838,-0.572434 0.101449,-0.288243 0.219131,-0.600858 -0.03245,-0.06088 -0.07716,-0.174542 -0.04058,-0.113666 -0.08935,-0.251682 -0.04872,-0.138023 -0.101532,-0.288222 -0.05282,-0.150199 -0.10559,-0.288215 -0.04872,-0.142082 -0.09341,-0.251682 -0.04059,-0.113665 -0.0731,-0.178608 -0.07309,-0.129899 -0.125883,-0.263864 -0.05282,-0.133958 -0.05282,-0.239506 -4.1e-5,-0.263871 0.109552,-0.373499 0.109593,-0.113679 0.377529,-0.113721 0.08931,-1.4e-5 0.15833,0.04059 0.07307,0.04059 0.142109,0.158308 0.06901,0.113652 0.150248,0.316625 0.08528,0.202966 0.207121,0.527714 0.02842,0.06901 0.05282,0.178615 0.02842,0.1096 0.05685,0.182674 0.04058,-0.08526 0.08116,-0.202994 0.04462,-0.117731 0.08521,-0.243586 0.04462,-0.12992 0.08116,-0.259826 0.04059,-0.129913 0.07304,-0.243586 0.01619,-0.07713 0.04461,-0.162395 0.03245,-0.08526 0.08523,-0.154278 0.05685,-0.07308 0.142068,-0.117744 0.0893,-0.04872 0.227331,-0.04879 0.207038,-2.7e-5 0.328842,0.133916 0.12181,0.129893 0.121845,0.349114 1.3e-5,0.113665 -0.04872,0.23952 -0.04872,0.121796 -0.113638,0.247651 -0.174508,0.357272 -0.320606,0.690179 -0.146092,0.332907 -0.288125,0.698296 0.09341,0.243557 0.18275,0.491181 0.09341,0.247623 0.194946,0.539896 0.10559,0.292281 0.231487,0.649504 0.125903,0.35723 0.288354,0.819995 0.186663,-0.531836 0.357091,-1.059599 0.170422,-0.531835 0.34085,-1.059612 0.174481,-0.531828 0.353026,-1.055547 0.178546,-0.527777 0.381449,-1.051488 v 0.0042 q 0.02432,-0.121797 0.06088,-0.235462 0.04059,-0.113679 0.101463,-0.198942 0.06088,-0.08526 0.150184,-0.133993 0.09337,-0.05275 0.223273,-0.05275 0.231396,-3.5e-5 0.349141,0.117675 0.12181,0.117717 0.121838,0.324755 7e-6,0.07307 -0.0081,0.133965 -0.0081,0.06088 -0.02432,0.121789 -0.01216,0.05685 -0.03648,0.121797 -0.02432,0.06088 -0.05678,0.13803 -0.251605,0.629281 -0.470736,1.217949 -0.215072,0.584616 -0.430144,1.185467 -0.211013,0.596792 -0.430137,1.238241 -0.219123,0.641449 -0.474766,1.38033 0.0081,0.02029 0.0042,0.03245 -0.0042,0.01216 -0.0042,0.03245 1.4e-5,0.08931 -0.03648,0.170512 -0.03245,0.07714 -0.101469,0.138037 -0.06498,0.06088 -0.170491,0.0934 -0.101483,0.03655 -0.239513,0.03655 -0.109607,1.4e-5 -0.178622,-0.03655 -0.06901,-0.03245 -0.113686,-0.08524 -0.04059,-0.05685 -0.06901,-0.125834 -0.02439,-0.06901 -0.04058,-0.138017 v 0.0042 q -0.08936,-0.284163 -0.178698,-0.515546 -0.08935,-0.235447 -0.182757,-0.487129 -0.146203,-0.405939 -0.296471,-0.844346 -0.14621,-0.442472 -0.300536,-0.856535 -0.08522,0.239534 -0.186663,0.556193 -0.101441,0.316666 -0.215058,0.665807 -0.113617,0.345083 -0.235357,0.698282 -0.121734,0.353207 -0.239416,0.669873 0.0081,0.03655 0.0081,0.07307 0,0.03655 7e-6,0.04872 1.3e-5,0.09337 -0.04462,0.162395 -0.04058,0.06901 -0.113652,0.113686 -0.06901,0.04872 -0.162374,0.0731 -0.09337,0.02439 -0.190797,0.02439 -0.138023,2e-5 -0.223286,-0.05678 -0.08526,-0.05275 -0.138045,-0.133943 -0.04872,-0.08119 -0.0731,-0.170499 -0.02439,-0.09337 -0.03655,-0.166439 z"
       style="font-style:normal;font-variant:normal;font-weight:normal;font-stretch:normal;font-size:11.9636px;line-height:0.85;font-family:'Autour One';-inkscape-font-specification:'Autour One, Normal';font-variant-ligatures:normal;font-variant-caps:normal;font-variant-numeric:normal;font-variant-east-asian:normal;letter-spacing:0px;word-spacing:0px;fill:#393c2e;fill-opacity:1;stroke:none;stroke-width:0.180967"
       id="path1987" />
    <path
       d="m 75.698224,31.361738 q -2e-5,-0.129907 0.03648,-0.25982 0.03648,-0.133979 0.133923,-0.267957 0.06901,-0.117731 0.18669,-0.357272 0.121755,-0.239527 0.271912,-0.564317 0.150157,-0.324797 0.320607,-0.70642 0.174501,-0.385688 0.353067,-0.783559 0.178559,-0.401922 0.353067,-0.799793 0.17856,-0.401922 0.336834,-0.75107 0.158274,-0.353213 0.288138,-0.637397 0.129865,-0.284199 0.219152,-0.458769 0.01216,-0.08931 0.04872,-0.174571 0.03655,-0.08932 0.09741,-0.158343 0.06088,-0.07307 0.146126,-0.113686 0.08525,-0.04469 0.198915,-0.04469 0.146147,-2.8e-5 0.235462,0.04059 0.09338,0.04058 0.150226,0.113637 0.06088,0.06901 0.09745,0.162374 0.03656,0.09337 0.0731,0.198915 0.03252,0.09336 0.06095,0.178608 0.02842,0.08119 0.05281,0.125841 0.272079,0.543948 0.527916,1.096013 0.259889,0.552073 0.511675,1.12443 0.255838,0.568313 0.515734,1.152853 0.259903,0.584547 0.540105,1.189387 l 0.07715,0.113651 q 0.03245,0.04469 0.07715,0.1096 0.04469,0.06088 0.08121,0.133958 0.04059,0.07307 0.06498,0.154257 0.02842,0.08118 0.02842,0.162375 4.2e-5,0.243578 -0.137975,0.345089 -0.138009,0.105569 -0.33693,0.105597 -0.109607,1.4e-5 -0.202987,-0.03655 -0.08931,-0.03245 -0.158337,-0.08929 -0.06901,-0.06088 -0.109627,-0.138009 -0.04059,-0.08119 -0.05282,-0.170498 -0.1137,-0.247616 -0.211167,-0.462758 -0.09746,-0.219207 -0.19086,-0.422173 -0.08934,-0.202966 -0.174619,-0.393763 -0.08528,-0.194842 -0.17056,-0.389691 -0.06498,7e-6 -0.182688,2.7e-5 -0.117724,-0.0042 -0.263871,-0.01209 -0.231396,3.5e-5 -0.470916,-0.0042 -0.235455,-0.0042 -0.483092,-0.0042 -0.247637,-0.0042 -0.511508,7.7e-5 -0.263878,3.4e-5 -0.552107,0.01223 -0.04469,0.0042 -0.08525,0.0081 -0.04059,7e-6 -0.08525,1.4e-5 -0.11363,0.276068 -0.215085,0.527777 -0.101449,0.247658 -0.182611,0.458762 -0.08116,0.211111 -0.146092,0.377564 -0.06088,0.162395 -0.09333,0.263885 v -0.0042 q -0.02432,0.08932 -0.05678,0.174577 -0.02842,0.08525 -0.08524,0.154271 -0.05685,0.06498 -0.158308,0.105576 -0.09742,0.04469 -0.259806,0.04475 -0.219214,3.5e-5 -0.365382,-0.109551 -0.142102,-0.109593 -0.14213,-0.32069 z m 2.074081,-2.557854 q 0.08525,-1.4e-5 0.219214,-3.5e-5 0.13803,-2.1e-5 0.353186,0.0042 0.21922,-3.5e-5 0.535873,0.0042 0.316645,-4.9e-5 0.767262,0.0042 -0.186802,-0.405932 -0.422333,-0.913347 -0.235531,-0.51148 -0.556339,-1.189379 -0.09334,0.207052 -0.198852,0.454703 -0.105514,0.247644 -0.223203,0.515601 -0.11363,0.267944 -0.235378,0.552142 -0.117682,0.284184 -0.23943,0.568376 z"
       style="font-style:normal;font-variant:normal;font-weight:normal;font-stretch:normal;font-size:11.9636px;line-height:0.85;font-family:'Autour One';-inkscape-font-specification:'Autour One, Normal';font-variant-ligatures:normal;font-variant-caps:normal;font-variant-numeric:normal;font-variant-east-asian:normal;letter-spacing:0px;word-spacing:0px;fill:#393c2e;fill-opacity:1;stroke:none;stroke-width:0.180967"
       id="path1989" />
    <path
       d="m 83.951398,31.392996 q -2e-5,-0.146147 0.0042,-0.259812 0.0042,-0.117731 0.0081,-0.239513 0.0081,-0.125848 0.01216,-0.276054 0.0081,-0.150213 0.0081,-0.369433 0.0042,-0.219221 -7.6e-5,-0.527749 -4.9e-5,-0.308529 -0.0082,-0.746956 -0.296423,-0.499291 -0.540057,-0.893034 -0.243634,-0.397808 -0.450728,-0.722543 -0.207087,-0.324741 -0.389809,-0.592643 -0.178657,-0.271967 -0.349197,-0.515525 -0.105576,-0.15425 -0.174605,-0.276025 -0.06901,-0.121776 -0.06908,-0.219207 -2.8e-5,-0.231397 0.137982,-0.349148 0.142068,-0.117752 0.369405,-0.11778 0.08931,-1.4e-5 0.162388,0.05275 0.07714,0.05282 0.138051,0.138009 0.06498,0.08118 0.117752,0.186725 0.05282,0.101483 0.0934,0.202966 0.134006,0.267916 0.288305,0.519591 0.154306,0.251667 0.316729,0.499277 0.166474,0.243551 0.337014,0.495225 0.17054,0.24761 0.332963,0.507401 l 0.129941,0.215142 0.125813,-0.215183 q 0.454571,-0.702375 0.783322,-1.234232 0.332817,-0.531856 0.49515,-0.844471 h -0.0042 q 0.04058,-0.105555 0.08522,-0.198935 0.04469,-0.09743 0.101462,-0.166453 0.05685,-0.07308 0.129893,-0.113687 0.07307,-0.04469 0.174556,-0.04469 0.08931,-1.4e-5 0.178622,0.02029 0.08932,0.01626 0.158337,0.06901 0.07308,0.05275 0.117752,0.146126 0.04469,0.0893 0.04469,0.235448 7e-6,0.07307 -0.04059,0.202987 -0.04058,0.125855 -0.186698,0.263899 -0.247581,0.385702 -0.495163,0.771404 -0.247574,0.381637 -0.474856,0.738915 -0.223231,0.353214 -0.418045,0.673959 -0.194815,0.316673 -0.332803,0.572448 -0.02432,0.235455 -0.02425,0.523691 0.0042,0.288229 0.01633,0.604881 0.01626,0.31258 0.03259,0.637349 0.01626,0.324769 0.01633,0.629239 7e-6,0.08119 -0.02432,0.158323 -0.02029,0.07714 -0.07305,0.133978 -0.05275,0.05685 -0.146133,0.08934 -0.09337,0.03655 -0.23139,0.03655 -0.109614,1.4e-5 -0.198928,-0.03245 -0.08526,-0.03245 -0.15022,-0.08929 -0.06498,-0.05275 -0.101503,-0.125834 -0.03252,-0.07307 -0.03252,-0.154257 z"
       style="font-style:normal;font-variant:normal;font-weight:normal;font-stretch:normal;font-size:11.9636px;line-height:0.85;font-family:'Autour One';-inkscape-font-specification:'Autour One, Normal';font-variant-ligatures:normal;font-variant-caps:normal;font-variant-numeric:normal;font-variant-east-asian:normal;letter-spacing:0px;word-spacing:0px;fill:#393c2e;fill-opacity:1;stroke:none;stroke-width:0.180967"
       id="path1991" />
    <path
       d="m 19.663281,15.368155 q -0.284176,4.2e-5 -0.588645,0.0042 -0.304469,0.0042 -0.665774,0.0042 -0.09743,1.4e-5 -0.170509,-0.04468 -0.07308,-0.04469 -0.121805,-0.113652 -0.04872,-0.07307 -0.0731,-0.162374 -0.02437,-0.08931 -0.02439,-0.178622 -3.6e-5,-0.239513 0.133918,-0.328848 0.133953,-0.09338 0.434364,-0.09343 l 3.239564,-4.73e-4 q 0.08119,-1.3e-5 0.16644,0.02029 0.08931,0.02029 0.158336,0.07305 0.07308,0.05275 0.117752,0.138009 0.04872,0.08524 0.04872,0.219207 1.4e-5,0.09743 -0.03245,0.186753 -0.03245,0.08931 -0.08929,0.154278 -0.05275,0.06498 -0.129892,0.105569 -0.07307,0.04059 -0.158316,0.04059 -0.06498,7e-6 -0.125855,-0.01216 -0.06088,-0.01216 -0.129906,-0.01216 l -1.047374,1.53e-4 -0.01154,4.57923 q 1.4e-5,0.09743 0.01223,0.190797 0.01626,0.09337 0.01626,0.20298 1.4e-5,0.08931 -0.01619,0.178622 -0.01619,0.08931 -0.06901,0.162395 -0.05275,0.07308 -0.150192,0.117752 -0.09742,0.04871 -0.255747,0.04878 -0.186739,2.8e-5 -0.284177,-0.06491 -0.09745,-0.06088 -0.14211,-0.158302 -0.04059,-0.09743 -0.04469,-0.215148 -0.0042,-0.117731 -0.0042,-0.227338 z"
       style="font-style:normal;font-variant:normal;font-weight:normal;font-stretch:normal;font-size:11.9636px;line-height:0.85;font-family:'Autour One';-inkscape-font-specification:'Autour One, Normal';font-variant-ligatures:normal;font-variant-caps:normal;font-variant-numeric:normal;font-variant-east-asian:normal;letter-spacing:0px;word-spacing:0px;fill:#393c2e;fill-opacity:1;stroke:none;stroke-width:0.180967"
       id="path1994" />
    <path
       d="m 23.366378,20.42587 q -3.5e-5,-0.207039 0.01209,-0.410019 0.01619,-0.202986 0.01619,-0.434383 -1.4e-5,-0.06498 -2.1e-5,-0.146147 -1.4e-5,-0.08525 -0.0042,-0.247637 -2.8e-5,-0.16644 -0.0042,-0.442486 -0.0042,-0.280112 -0.0123,-0.738846 -0.0042,-0.458734 -0.01237,-1.128572 -0.0082,-0.673889 -0.02057,-1.623832 -1.4e-5,-0.113665 -0.03252,-0.227338 -0.02842,-0.117717 -0.02842,-0.24763 -1.4e-5,-0.105548 0.02432,-0.186746 0.02842,-0.08119 0.09741,-0.138037 0.07307,-0.05685 0.190791,-0.08528 0.117723,-0.03245 0.300404,-0.03252 0.09337,-1.4e-5 0.162388,0.04059 0.06901,0.03655 0.113686,0.101476 0.04872,0.06088 0.06901,0.138009 0.02439,0.07713 0.02439,0.154264 2.8e-5,0.182681 -0.01209,0.373485 -0.01216,0.186739 -0.01209,0.426259 l 1.32e-4,0.897169 q 0.422201,0.01209 0.811926,0.02425 0.389719,0.01209 0.81192,0.01202 0.292287,-4.2e-5 0.584582,-0.02036 0.29228,-0.02446 0.612991,-0.03252 -1.4e-5,-0.07713 -2.8e-5,-0.170499 0.0042,-0.09743 0.0042,-0.235461 -2.1e-5,-0.138023 -4.9e-5,-0.328828 -2.8e-5,-0.190797 -6.2e-5,-0.462792 -2.1e-5,-0.117724 -0.02439,-0.235455 -0.02439,-0.117724 -0.02439,-0.239513 -2e-5,-0.105549 0.02432,-0.186746 0.02842,-0.08119 0.0974,-0.138037 0.07307,-0.05685 0.190791,-0.08528 0.121782,-0.03245 0.30447,-0.03252 0.09742,-1.4e-5 0.166446,0.04468 0.06901,0.04462 0.109628,0.113652 0.04469,0.06498 0.06088,0.142075 0.02029,0.07307 0.02029,0.133964 4.1e-5,0.308529 -0.02022,0.621123 -0.01619,0.308535 -0.02425,0.653596 4.2e-5,0.280112 8.3e-5,0.560224 4.2e-5,0.280119 8.4e-5,0.576465 0.0042,0.296353 0.0042,0.617064 4.9e-5,0.320704 9.8e-5,0.673889 6.2e-5,0.410018 0.0082,0.694196 0.01223,0.280105 0.02446,0.474961 0.01626,0.190804 0.03252,0.308521 0.01626,0.117731 0.02842,0.198921 0.01216,0.06901 0.02029,0.133965 0.0081,0.06498 0.0081,0.138024 1.4e-5,0.09337 -0.02432,0.170512 -0.02029,0.07713 -0.07711,0.133971 -0.05275,0.05275 -0.146133,0.08528 -0.09337,0.03245 -0.235455,0.03245 -0.162381,2.1e-5 -0.267937,-0.02835 -0.105555,-0.02439 -0.170512,-0.08117 -0.06088,-0.05275 -0.08933,-0.129893 -0.02439,-0.07713 -0.02439,-0.18268 -3.5e-5,-0.211097 0.02835,-0.418136 0.03245,-0.207052 0.03238,-0.426266 -8.4e-5,-0.531807 -0.02043,-1.075797 -0.01633,-0.543976 -0.0205,-1.169157 -0.288228,-0.0042 -0.661713,9.7e-5 -0.373485,5.6e-5 -0.763204,0.0083 -0.385661,0.0042 -0.751022,0.0164 -0.361302,0.0082 -0.633297,0.01223 0.0082,0.65359 0.02043,1.100149 0.01223,0.442493 0.02446,0.738839 0.01223,0.292294 0.02439,0.470916 0.01626,0.174563 0.02849,0.288222 0.01216,0.109607 0.01626,0.211097 0.0081,0.10149 0.0081,0.247637 1.4e-5,0.09337 -0.02029,0.170505 -0.02029,0.07308 -0.07711,0.12992 -0.05275,0.05685 -0.146134,0.08527 -0.08931,0.03245 -0.235447,0.03252 -0.162388,2e-5 -0.263878,-0.02842 -0.101497,-0.02439 -0.162395,-0.0771 -0.05685,-0.05282 -0.07715,-0.129899 -0.02029,-0.07713 -0.02029,-0.182681 z"
       style="font-style:normal;font-variant:normal;font-weight:normal;font-stretch:normal;font-size:11.9636px;line-height:0.85;font-family:'Autour One';-inkscape-font-specification:'Autour One, Normal';font-variant-ligatures:normal;font-variant-caps:normal;font-variant-numeric:normal;font-variant-east-asian:normal;letter-spacing:0px;word-spacing:0px;fill:#393c2e;fill-opacity:1;stroke:none;stroke-width:0.180967"
       id="path1996" />
    <path
       d="m 29.679026,20.266616 q -7e-6,-0.06901 0.01619,-0.146147 0.02029,-0.07714 0.04059,-0.142089 l 0.03655,-0.12992 -0.09409,-4.855263 q -2.7e-5,-0.198921 0.04462,-0.308535 0.04872,-0.109621 0.121769,-0.162402 0.07307,-0.05275 0.166432,-0.06088 0.09743,-0.0081 0.194863,-0.0081 l 2.139406,-3.13e-4 q 0.07307,-0.0081 0.162381,-0.02029 0.09337,-0.01626 0.129906,-0.01626 0.154264,-2.1e-5 0.247637,0.02842 0.09744,0.02842 0.15022,0.08523 0.05685,0.05275 0.07309,0.133958 0.02029,0.08118 0.02036,0.190791 2.1e-5,0.154271 -0.04059,0.247644 -0.03648,0.09338 -0.105527,0.146161 -0.06498,0.04872 -0.154257,0.06498 -0.08931,0.01626 -0.190798,0.01626 -0.04469,7e-6 -0.117731,2.1e-5 -0.07307,-0.0042 -0.154264,-0.01216 -0.393784,6.3e-5 -0.637356,9.8e-5 -0.23952,3.4e-5 -0.38566,0.0042 -0.142089,2.1e-5 -0.219221,3.5e-5 -0.07307,7e-6 -0.129906,1.4e-5 l -0.377544,5.6e-5 1.88e-4,1.286894 q 0.02432,0 0.05685,0.0042 0.03655,-7e-6 0.109613,-1.4e-5 0.07307,-1.4e-5 0.198922,-2.8e-5 0.129906,-2.1e-5 0.345061,-5.6e-5 0.215163,-2.7e-5 0.531808,-7.6e-5 0.316652,-4.9e-5 0.767262,-1.11e-4 0.04469,-7e-6 0.10149,-0.0042 0.05685,-0.0042 0.113673,-0.01216 0.07307,-0.0081 0.170498,-0.01626 0.09743,-0.0081 0.211097,-0.0081 0.109607,-1.4e-5 0.194869,0.04469 0.08526,0.04468 0.142103,0.113645 0.06088,0.06498 0.08933,0.142074 0.03245,0.07712 0.03252,0.146141 3.5e-5,0.219213 -0.146099,0.320724 -0.142067,0.101511 -0.369405,0.101546 l -2.549424,0.0049 3.54e-4,2.431701 q 0.401901,-5.6e-5 0.807861,0.01202 0.40596,0.01209 0.84846,0.01202 0.121789,-1.4e-5 0.223272,-0.01216 0.10149,-0.01216 0.194856,-0.02842 0.08526,-0.01216 0.170505,-0.02029 0.08931,-0.01216 0.194856,-0.01216 0.12179,-2.1e-5 0.223287,0.02029 0.105548,0.01626 0.182687,0.06498 0.07714,0.04468 0.12181,0.125827 0.04468,0.07712 0.04468,0.198914 2.8e-5,0.178622 -0.06088,0.276067 -0.06088,0.09744 -0.166426,0.146162 -0.101483,0.04468 -0.235448,0.05685 -0.129906,0.0081 -0.271988,0.0082 l -2.732111,4.03e-4 q -0.105549,1.4e-5 -0.194863,-0.02432 -0.08526,-0.02439 -0.15022,-0.07711 -0.06498,-0.05685 -0.10151,-0.142075 -0.03655,-0.0893 -0.03655,-0.215148 z"
       style="font-style:normal;font-variant:normal;font-weight:normal;font-stretch:normal;font-size:11.9636px;line-height:0.85;font-family:'Autour One';-inkscape-font-specification:'Autour One, Normal';font-variant-ligatures:normal;font-variant-caps:normal;font-variant-numeric:normal;font-variant-east-asian:normal;letter-spacing:0px;word-spacing:0px;fill:#393c2e;fill-opacity:1;stroke:none;stroke-width:0.180967"
       id="path1998" />
    <path
       d="m 44.18764,17.585145 q -1.04e-4,-0.722605 0.202785,-1.319404 0.206955,-0.596785 0.580371,-1.027158 0.377481,-0.430373 0.905195,-0.665912 0.531773,-0.239589 1.177246,-0.239687 0.682013,-9.7e-5 1.20168,0.23934 0.523725,0.235378 0.876974,0.665647 0.357306,0.430262 0.540077,1.026992 0.182771,0.596743 0.182875,1.319348 9.7e-5,0.686072 -0.198734,1.282864 -0.198831,0.592726 -0.568188,1.031224 -0.369364,0.43849 -0.893013,0.690262 -0.523648,0.251772 -1.173187,0.251869 -0.430318,6.3e-5 -0.807875,-0.113554 -0.377564,-0.11361 -0.694237,-0.324672 Q 45.206987,20.191256 44.959308,19.899003 44.71163,19.602692 44.53701,19.24141 44.366457,18.880129 44.27708,18.462007 44.18771,18.043879 44.18764,17.585145 Z m 0.925592,-1.39e-4 q 4.2e-5,0.30447 0.05692,0.604874 0.05685,0.296346 0.166523,0.56832 0.113707,0.267916 0.27613,0.499291 0.166474,0.22731 0.377599,0.397788 0.215183,0.166404 0.47501,0.263794 0.263892,0.09334 0.568361,0.09329 0.320704,-4.2e-5 0.584568,-0.09346 0.263858,-0.09747 0.474934,-0.26394 0.211076,-0.17054 0.365305,-0.397899 0.158288,-0.231417 0.259743,-0.49936 0.105507,-0.272016 0.154181,-0.568376 0.05275,-0.300418 0.05268,-0.604888 -7.7e-5,-0.48715 -0.113805,-0.921505 -0.113735,-0.438421 -0.349238,-0.77128 -0.231452,-0.332851 -0.588724,-0.527651 -0.353213,-0.194815 -0.840363,-0.194745 -0.458734,6.9e-5 -0.815957,0.174688 -0.357217,0.174613 -0.604805,0.4913 -0.24353,0.316687 -0.373374,0.763252 -0.125778,0.442521 -0.125702,0.986504 z"
       style="font-style:normal;font-variant:normal;font-weight:normal;font-stretch:normal;font-size:11.9636px;line-height:0.85;font-family:'Autour One';-inkscape-font-specification:'Autour One, Normal';font-variant-ligatures:normal;font-variant-caps:normal;font-variant-numeric:normal;font-variant-east-asian:normal;letter-spacing:0px;word-spacing:0px;fill:#393c2e;fill-opacity:1;stroke:none;stroke-width:0.180967"
       id="path2000" />
    <path
       d="m 51.280171,20.385222 q -1.4e-5,-0.129906 0.01619,-0.259812 0.02029,-0.133972 0.02432,-0.276054 l -0.01696,-4.668544 q -0.02439,-0.05685 -0.04468,-0.158316 -0.01626,-0.10149 -0.01626,-0.190797 -1.4e-5,-0.0812 0.02842,-0.162388 0.02842,-0.0812 0.08117,-0.142096 0.05685,-0.06498 0.138016,-0.101511 0.08118,-0.04059 0.186732,-0.04059 0.178622,-2.7e-5 0.357251,0.02022 0.178622,0.01626 0.373485,0.01619 0.154264,-2.7e-5 0.308528,-0.01633 0.158323,-0.02029 0.332879,-0.02036 0.572407,-8.3e-5 1.067702,0.158163 0.495295,0.15826 0.856646,0.466733 0.361344,0.304414 0.568452,0.750938 0.207108,0.446531 0.207192,1.018937 7.6e-5,0.543983 -0.137892,0.949964 -0.137967,0.401922 -0.377439,0.690186 -0.235413,0.28827 -0.556096,0.475051 -0.316617,0.182729 -0.68603,0.288333 -0.365347,0.105611 -0.759124,0.146258 -0.393771,0.04066 -0.779431,0.04072 -0.04059,0 -0.06901,0.0042 -0.02842,7e-6 -0.05275,7e-6 -0.02439,7e-6 -0.05275,7e-6 -0.02439,-0.0042 -0.06088,-0.0042 2e-5,0.142082 2.7e-5,0.227338 1.4e-5,0.08119 2.1e-5,0.133965 0.0042,0.05275 0.0042,0.0893 7e-6,0.03655 1.4e-5,0.08526 2.1e-5,0.129907 0.02439,0.259813 0.02842,0.129899 0.02849,0.276046 2.1e-5,0.109607 -0.04872,0.186746 -0.04872,0.07308 -0.121769,0.117752 -0.07307,0.04872 -0.158316,0.06901 -0.08525,0.02432 -0.158322,0.02432 -0.09743,1.4e-5 -0.190805,-0.03245 -0.09337,-0.02842 -0.162395,-0.08523 -0.06901,-0.06088 -0.113693,-0.142068 -0.04059,-0.08525 -0.04065,-0.194856 z m 0.941548,-1.895973 q 0.0812,0.0042 0.166446,0.0081 0.08931,0.0042 0.166447,0.0081 0.07713,0.0042 0.13803,0.0081 0.06088,-7e-6 0.09337,-1.4e-5 0.450617,-6.3e-5 0.775372,-0.07319 0.328821,-0.07312 0.552079,-0.199005 0.223259,-0.125875 0.361261,-0.292336 0.138003,-0.170526 0.211042,-0.365402 0.07305,-0.198929 0.09738,-0.410033 0.02432,-0.215155 0.02432,-0.426259 -4.9e-5,-0.336944 -0.09752,-0.580509 -0.09341,-0.247616 -0.2477,-0.414042 -0.154292,-0.166426 -0.353227,-0.267888 -0.19487,-0.101455 -0.401922,-0.154202 -0.202987,-0.05685 -0.39785,-0.07302 -0.194863,-0.02029 -0.34101,-0.02022 -0.186739,2.8e-5 -0.377544,0.0082 -0.186739,0.0042 -0.401894,0.0082 0.0082,0.531808 0.0123,0.937768 0.0042,0.401901 0.0042,0.714488 0.0042,0.308535 0.0042,0.539931 0.0042,0.231396 0.0042,0.414077 0.0042,0.18268 0.0042,0.332886 0.0042,0.150199 0.0042,0.296346 z"
       style="font-style:normal;font-variant:normal;font-weight:normal;font-stretch:normal;font-size:11.9636px;line-height:0.85;font-family:'Autour One';-inkscape-font-specification:'Autour One, Normal';font-variant-ligatures:normal;font-variant-caps:normal;font-variant-numeric:normal;font-variant-east-asian:normal;letter-spacing:0px;word-spacing:0px;fill:#393c2e;fill-opacity:1;stroke:none;stroke-width:0.180967"
       id="path2002" />
    <path
       d="m 56.975776,20.262599 q -1.4e-5,-0.06901 0.01619,-0.146154 0.02029,-0.07713 0.04059,-0.142082 l 0.03648,-0.12992 -0.09409,-4.855263 q -2.8e-5,-0.198921 0.04462,-0.308535 0.04872,-0.109621 0.121761,-0.162409 0.07307,-0.05275 0.166433,-0.06088 0.09743,-0.0081 0.194863,-0.0081 l 2.139406,-3.2e-4 q 0.07307,-0.0081 0.162381,-0.02029 0.09337,-0.01626 0.129906,-0.01626 0.154264,-2.1e-5 0.247637,0.02842 0.09744,0.02842 0.15022,0.08524 0.05685,0.05275 0.07309,0.133951 0.02029,0.08119 0.02036,0.190797 2.1e-5,0.154271 -0.04059,0.247637 -0.03649,0.09338 -0.105527,0.146168 -0.06491,0.04872 -0.154258,0.06498 -0.08931,0.01626 -0.190797,0.01626 -0.04469,7e-6 -0.117724,1.4e-5 -0.07307,-0.0042 -0.154271,-0.01216 -0.393777,5.5e-5 -0.637356,9e-5 -0.239513,3.5e-5 -0.385661,0.0042 -0.142088,2.1e-5 -0.21922,3.5e-5 -0.07307,1.3e-5 -0.129907,2e-5 l -0.377543,5.6e-5 1.95e-4,1.286894 q 0.02439,-7e-6 0.05685,0.0042 0.03655,-7e-6 0.109607,-2.1e-5 0.07307,-7e-6 0.198921,-2.8e-5 0.129907,-2e-5 0.345062,-4.8e-5 0.215162,-3.5e-5 0.531808,-7.7e-5 0.316652,-4.8e-5 0.767269,-1.18e-4 0.04469,-7e-6 0.10149,-0.0042 0.05685,-0.0042 0.113665,-0.01216 0.07307,-0.0081 0.170498,-0.01626 0.09743,-0.0081 0.211097,-0.0081 0.109614,-2e-5 0.19487,0.04469 0.08526,0.04469 0.142103,0.113645 0.06088,0.06498 0.08934,0.142082 0.03245,0.07712 0.03252,0.14614 2.7e-5,0.219214 -0.146099,0.320725 -0.142075,0.10151 -0.369413,0.101545 l -2.549424,0.0049 3.55e-4,2.4317 q 0.401901,-6.3e-5 0.807861,0.01202 0.405967,0.01209 0.84846,0.01202 0.121789,-2.1e-5 0.223279,-0.01216 0.101483,-0.01216 0.194856,-0.02842 0.08525,-0.01216 0.170498,-0.02029 0.08931,-0.01216 0.194856,-0.01216 0.121789,-1.4e-5 0.223286,0.02022 0.105549,0.01626 0.182688,0.06498 0.07714,0.04469 0.12181,0.125827 0.04469,0.07712 0.04469,0.198914 2.8e-5,0.178622 -0.06088,0.27606 -0.06088,0.09745 -0.166426,0.146168 -0.101483,0.04469 -0.235448,0.05685 -0.129906,0.0081 -0.271988,0.0082 l -2.732111,3.97e-4 q -0.105549,2e-5 -0.194863,-0.02425 -0.08526,-0.02439 -0.15022,-0.07711 -0.06498,-0.05685 -0.101511,-0.142075 -0.03655,-0.0893 -0.03655,-0.215149 z"
       style="font-style:normal;font-variant:normal;font-weight:normal;font-stretch:normal;font-size:11.9636px;line-height:0.85;font-family:'Autour One';-inkscape-font-specification:'Autour One, Normal';font-variant-ligatures:normal;font-variant-caps:normal;font-variant-numeric:normal;font-variant-east-asian:normal;letter-spacing:0px;word-spacing:0px;fill:#393c2e;fill-opacity:1;stroke:none;stroke-width:0.180967"
       id="path2004" />
    <path
       d="m 62.358829,20.460728 q -2.7e-5,-0.170505 0.02432,-0.288243 0.02432,-0.117724 0.02842,-0.109607 0.0081,-0.4425 0.01202,-0.897175 0.0081,-0.454676 0.008,-0.962125 -4.8e-5,-0.320711 -9.7e-5,-0.694196 -5.6e-5,-0.377543 -0.0082,-0.759145 -0.0042,-0.385661 -0.01633,-0.755073 -0.01223,-0.373485 -0.03259,-0.690137 -0.01626,-0.09336 -0.02439,-0.166433 -0.0081,-0.07713 -0.0081,-0.162388 -2.8e-5,-0.198915 0.08521,-0.312601 0.08523,-0.117745 0.276026,-0.162423 0.08118,-0.06901 0.178608,-0.09339 0.101483,-0.02842 0.194856,-0.02842 0.09743,-1.4e-5 0.17457,0.05685 0.08121,0.05685 0.14211,0.133944 0.06088,0.07712 0.101511,0.162374 0.04059,0.08118 0.05685,0.133951 0.125876,0.186725 0.300474,0.426217 0.178657,0.239486 0.385737,0.515511 0.211139,0.271961 0.446642,0.572337 0.235496,0.296318 0.475058,0.600753 0.243621,0.304435 0.483183,0.60887 0.239561,0.30037 0.454765,0.580447 0.215197,0.280091 0.401978,0.531752 0.186774,0.24761 0.320773,0.44651 -1.32e-4,-0.868752 -0.0083,-1.493933 -0.0042,-0.629239 -0.01237,-1.067666 -0.0082,-0.442493 -0.02043,-0.726671 -0.01223,-0.28417 -0.02036,-0.470909 -0.0081,-0.186739 -0.01626,-0.304463 -0.0042,-0.121789 -0.0042,-0.231396 -2.8e-5,-0.162388 0.03245,-0.263885 0.03648,-0.105556 0.09741,-0.162395 0.06491,-0.05685 0.158309,-0.07715 0.09337,-0.02029 0.215155,-0.02029 0.158323,-2.1e-5 0.247644,0.06491 0.08932,0.06498 0.133993,0.166419 0.04872,0.09742 0.05685,0.223272 0.01216,0.12179 0.01223,0.239514 l 6.88e-4,4.656362 q 2.1e-5,0.146147 0.01626,0.296345 0.01626,0.146148 0.01626,0.312587 2.1e-5,0.158323 -0.02432,0.263871 -0.02432,0.101497 -0.08117,0.166461 -0.05275,0.06498 -0.142068,0.08933 -0.08525,0.02842 -0.207038,0.02842 -0.227338,2.8e-5 -0.365382,-0.113623 Q 66.77155,20.610343 66.71469,20.447962 66.328953,19.920269 65.931033,19.408823 65.53718,18.893312 65.135202,18.381866 64.733224,17.866348 64.327188,17.346785 63.921152,16.823157 63.519174,16.283288 L 63.27554,15.901721 q 0.0042,0.621115 0.0083,1.108273 0.0042,0.483092 0.0083,0.864693 0.0042,0.377544 0.0082,0.669831 0.0042,0.288236 0.0042,0.519632 0.0042,0.227331 0.0042,0.418129 0.0042,0.186746 0.0042,0.365368 0.0042,0.105548 0.01223,0.227337 0.01216,0.117724 0.01223,0.231397 2.1e-5,0.105548 -0.02029,0.20298 -0.01619,0.09744 -0.06901,0.170512 -0.05275,0.07308 -0.150184,0.113693 -0.09337,0.04469 -0.247631,0.04475 -0.207038,3.5e-5 -0.349141,-0.101434 -0.142102,-0.101469 -0.142123,-0.276033 z"
       style="font-style:normal;font-variant:normal;font-weight:normal;font-stretch:normal;font-size:11.9636px;line-height:0.85;font-family:'Autour One';-inkscape-font-specification:'Autour One, Normal';font-variant-ligatures:normal;font-variant-caps:normal;font-variant-numeric:normal;font-variant-east-asian:normal;letter-spacing:0px;word-spacing:0px;fill:#393c2e;fill-opacity:1;stroke:none;stroke-width:0.180967"
       id="path2006" />
    <rect
       style="fill:#decd87;fill-opacity:1;stroke:none;stroke-width:0.385255;stroke-miterlimit:4;stroke-dasharray:none;stroke-opacity:1"
       id="rect2832"
       width="99.48333"
       height="10.583333"
       x="0.52916664"
       y="42.333332" />
    <text
       xml:space="preserve"
       style="font-size:2.82222px;line-height:1.25;font-family:Raleway;-inkscape-font-specification:Raleway;text-align:center;text-anchor:middle;fill:#616161;fill-opacity:1;stroke-width:0.264583"
       x="50.169224"
       y="92.585724"
       id="text2836"><tspan
         sodipodi:role="line"
         x="50.169224"
         y="92.585724"
         style="font-style:normal;font-variant:normal;font-weight:normal;font-stretch:normal;font-size:2.82222px;font-family:'Open Sans Condensed';-inkscape-font-specification:'Open Sans Condensed, ';text-align:center;text-anchor:middle;fill:#616161;fill-opacity:1;stroke-width:0.264583"
         id="tspan2912">Karsten Wade  Andy Oram  Ashley Nicolson  Brian Proffit  Bryan Behrenshausen</tspan><tspan
         sodipodi:role="line"
         x="50.169224"
         y="96.225349"
         style="font-style:normal;font-variant:normal;font-weight:normal;font-stretch:normal;font-size:2.82222px;font-family:'Open Sans Condensed';-inkscape-font-specification:'Open Sans Condensed, ';text-align:center;text-anchor:middle;fill:#616161;fill-opacity:1;stroke-width:0.264583"
         id="tspan2908">Dave Neary  Gordon Haff  Guedis Cardenas  Josh Berkus  Lauren Maffeo</tspan><tspan
         sodipodi:role="line"
         x="50.169224"
         y="99.864975"
         style="font-style:normal;font-variant:normal;font-weight:normal;font-stretch:normal;font-size:2.82222px;font-family:'Open Sans Condensed';-inkscape-font-specification:'Open Sans Condensed, ';text-align:center;text-anchor:middle;fill:#616161;fill-opacity:1;stroke-width:0.264583"
         id="tspan2866">Leslie Hawthorn  Lisa Caywood  Paula Dickerson  Ray Paik  Shaun McCance</tspan></text>
    <text
       xml:space="preserve"
       style="font-style:normal;font-variant:normal;font-weight:normal;font-stretch:normal;font-size:4.23333px;line-height:1.25;font-family:'Open Sans';-inkscape-font-specification:'Open Sans';text-align:center;text-anchor:middle;stroke-width:0.264583"
       x="50.513721"
       y="65.376083"
       id="text2960"><tspan
         sodipodi:role="line"
         x="50.513721"
         y="65.376083"
         style="font-style:normal;font-variant:normal;font-weight:normal;font-stretch:normal;font-size:4.23333px;font-family:'Open Sans';-inkscape-font-specification:'Open Sans';text-align:center;text-anchor:middle;stroke-width:0.264583"
         id="tspan2964">A guidebook for open source community</tspan><tspan
         sodipodi:role="line"
         x="50.513721"
         y="70.667747"
         style="font-style:normal;font-variant:normal;font-weight:normal;font-stretch:normal;font-size:4.23333px;font-family:'Open Sans';-inkscape-font-specification:'Open Sans';text-align:center;text-anchor:middle;stroke-width:0.264583"
         id="tspan103">management best practices, written by</tspan><tspan
         sodipodi:role="line"
         x="50.513721"
         y="75.959412"
         style="font-style:normal;font-variant:normal;font-weight:normal;font-stretch:normal;font-size:4.23333px;font-family:'Open Sans';-inkscape-font-specification:'Open Sans';text-align:center;text-anchor:middle;stroke-width:0.264583"
         id="tspan105">practitioners of all levels</tspan></text>
    <rect
       style="fill:#decd87;stroke-width:0.529;fill-opacity:1"
       id="rect1513"
       width="10.652195"
       height="11.030149"
       x="112.07581"
       y="15.801091" />
    <rect
       style="fill:#616161;stroke-width:0.529"
       id="rect1515"
       width="11.552276"
       height="15.305962"
       x="112.7421"
       y="41.11937" />
    <rect
       style="fill:#393c2e;stroke-width:0.529;fill-opacity:1"
       id="rect1517"
       width="14.755114"
       height="21.424438"
       x="112.68926"
       y="72.390701" />
  </g>
</svg>
