<?xml version="1.0" encoding="UTF-8" standalone="no"?>
<svg
   xmlns:dc="http://purl.org/dc/elements/1.1/"
   xmlns:cc="http://creativecommons.org/ns#"
   xmlns:rdf="http://www.w3.org/1999/02/22-rdf-syntax-ns#"
   xmlns:svg="http://www.w3.org/2000/svg"
   xmlns="http://www.w3.org/2000/svg"
   xmlns:sodipodi="http://sodipodi.sourceforge.net/DTD/sodipodi-0.dtd"
   xmlns:inkscape="http://www.inkscape.org/namespaces/inkscape"
   width="134.79202mm"
   height="44.614124mm"
   viewBox="0 0 134.79202 44.614124"
   version="1.1"
   id="svg1058"
   sodipodi:docname="tosw-logo-darkbg.svg"
   inkscape:version="1.0.1 (3bc2e813f5, 2020-09-07)">
  <defs
     id="defs1052" />
  <sodipodi:namedview
     id="base"
     pagecolor="#131313"
     bordercolor="#666666"
     borderopacity="1.0"
     inkscape:pageopacity="0"
     inkscape:pageshadow="2"
     inkscape:zoom="2.8284271"
     inkscape:cx="373.51541"
     inkscape:cy="96.906045"
     inkscape:document-units="mm"
     inkscape:current-layer="g4881"
     inkscape:document-rotation="0"
     showgrid="false"
     fit-margin-top="5"
     lock-margins="true"
     units="px"
     inkscape:pagecheckerboard="false"
     inkscape:window-width="3840"
     inkscape:window-height="1136"
     inkscape:window-x="0"
     inkscape:window-y="27"
     inkscape:window-maximized="1"
     fit-margin-left="5"
     fit-margin-right="5"
     fit-margin-bottom="5" />
  <metadata
     id="metadata1055">
    <rdf:RDF>
      <cc:Work
         rdf:about="">
        <dc:format>image/svg+xml</dc:format>
        <dc:type
           rdf:resource="http://purl.org/dc/dcmitype/StillImage" />
        <dc:title />
      </cc:Work>
    </rdf:RDF>
  </metadata>
  <g
     inkscape:label="Layer 1"
     inkscape:groupmode="layer"
     id="layer1"
     transform="translate(-75.478986,-104.69294)">
    <g
       id="g4881"
       transform="translate(94.281265,270.31301)">
      <path
         id="path2203"
         style="color:#000000;font-style:normal;font-variant:normal;font-weight:normal;font-stretch:normal;font-size:medium;line-height:normal;font-family:sans-serif;font-variant-ligatures:normal;font-variant-position:normal;font-variant-caps:normal;font-variant-numeric:normal;font-variant-alternates:normal;font-variant-east-asian:normal;font-feature-settings:normal;font-variation-settings:normal;text-indent:0;text-align:start;text-decoration:none;text-decoration-line:none;text-decoration-style:solid;text-decoration-color:#000000;letter-spacing:normal;word-spacing:normal;text-transform:none;writing-mode:lr-tb;direction:ltr;text-orientation:mixed;dominant-baseline:auto;baseline-shift:baseline;text-anchor:start;white-space:normal;shape-padding:0;shape-margin:0;inline-size:0;clip-rule:nonzero;display:inline;overflow:visible;visibility:visible;isolation:auto;mix-blend-mode:normal;color-interpolation:sRGB;color-interpolation-filters:linearRGB;solid-color:#000000;solid-opacity:1;vector-effect:none;fill:#786721;fill-opacity:1;fill-rule:nonzero;stroke:none;stroke-width:2.83465;stroke-linecap:butt;stroke-linejoin:miter;stroke-miterlimit:4;stroke-dasharray:none;stroke-dashoffset:0.148135;stroke-opacity:1;color-rendering:auto;image-rendering:auto;shape-rendering:auto;text-rendering:auto;enable-background:accumulate;stop-color:#000000"
         d="M 25.199219 18.896484 L 25.199219 18.898438 C 21.733785 18.898438 18.896484 21.737676 18.896484 25.203125 C 18.896484 28.668536 21.733785 31.507812 25.199219 31.507812 C 28.179633 31.507812 30.697843 29.405672 31.345703 26.613281 C 32.017182 26.613432 44.543892 26.616318 49.064453 26.617188 C 49.711833 29.407462 52.22029 31.507812 55.199219 31.507812 C 58.176837 31.507812 60.69298 29.409554 61.34375 26.621094 C 67.81305 26.622568 70.825675 26.623224 79.066406 26.625 C 79.716681 29.411381 82.223087 31.507812 85.199219 31.507812 C 88.174698 31.507812 90.688808 29.412427 91.341797 26.626953 C 100.09037 26.628956 100.62574 26.629045 109.06641 26.630859 C 109.71871 29.414481 112.22507 31.507812 115.19922 31.507812 C 118.17257 31.507812 120.68466 29.415263 121.33984 26.632812 C 128.8489 26.634551 133.94808 26.635698 139.06836 26.636719 C 139.72286 29.417317 142.22722 31.507812 145.19922 31.507812 C 148.16978 31.507812 150.6798 29.419145 151.33789 26.640625 C 153.02326 26.641003 162.12235 26.642578 162.21484 26.642578 C 174.58538 26.642578 182.17509 30.186697 187.51953 35.470703 C 192.86397 40.754747 195.96397 47.931292 198.78516 55.285156 C 201.60624 62.639059 204.12733 70.148856 208.67773 75.960938 C 210.90346 78.803709 213.65138 81.201899 217.09766 82.914062 L 168.51953 82.935547 C 167.86752 80.151396 165.35959 78.058594 162.38477 78.058594 C 159.40861 78.058594 156.90068 80.153488 156.25 82.939453 L 138.56836 82.947266 C 137.97535 80.08314 135.41635 77.910156 132.38477 77.910156 C 129.35117 77.910156 126.79836 80.08624 126.20898 82.953125 L 108.57031 82.960938 C 107.98252 80.090197 105.42112 77.910156 102.38477 77.910156 C 99.347083 77.910156 96.791913 80.092252 96.207031 82.964844 L 78.572266 82.972656 C 77.988972 80.096209 75.425187 77.910156 72.384766 77.910156 C 69.342359 77.910156 66.784687 80.099234 66.205078 82.978516 L 48.574219 82.986328 C 47.996212 80.103229 45.429923 77.910156 42.384766 77.910156 C 38.919321 77.910156 36.080078 80.749395 36.080078 84.214844 C 36.080078 87.680293 38.919321 90.517578 42.384766 90.517578 C 45.294405 90.517578 47.761833 88.515066 48.480469 85.822266 L 66.294922 85.814453 C 67.009105 88.511146 69.472326 90.517578 72.384766 90.517578 C 75.299351 90.517578 77.770494 88.508272 78.484375 85.808594 L 96.291016 85.800781 C 97.000471 88.504391 99.467385 90.517578 102.38477 90.517578 C 105.30411 90.517578 107.77706 88.50129 108.48633 85.794922 L 126.28906 85.787109 C 126.99387 88.497409 129.46259 90.517578 132.38477 90.517578 C 135.30842 90.517578 137.78517 88.495581 138.49023 85.783203 L 156.24805 85.775391 C 156.89583 88.565702 159.40582 90.666016 162.38477 90.666016 C 165.36583 90.666016 167.87786 88.562829 168.52344 85.769531 L 230.40234 85.744141 L 344.51367 85.695312 C 341.06111 87.407854 338.30861 89.807821 336.08008 92.654297 C 331.52972 98.466341 329.0028 105.97625 326.18164 113.33008 C 323.36049 120.68402 320.26827 127.85857 314.92383 133.14258 C 309.57942 138.42658 301.98184 141.96484 289.61133 141.96484 C 289.54333 141.96484 280.77994 141.9668 279.60156 141.9668 C 278.93841 139.19561 276.43241 137.11523 273.4668 137.11523 C 270.49975 137.11523 267.99944 139.1974 267.33984 141.9707 C 263.18569 141.97165 256.07664 141.97283 249.60352 141.97461 C 248.9432 139.19949 246.4352 137.11523 243.4668 137.11523 C 240.4976 137.11523 237.99527 139.20027 237.33789 141.97656 C 229.72596 141.97857 228.19638 141.97869 219.60547 141.98047 C 218.94738 139.2024 216.43735 137.11523 213.4668 137.11523 C 210.49481 137.11523 207.99044 139.20415 207.33594 141.98438 C 198.53289 141.98638 198.05062 141.9865 189.60742 141.98828 C 188.9522 139.20625 186.44015 137.11523 183.4668 137.11523 C 180.49201 137.11523 177.98562 139.20807 177.33398 141.99219 C 169.60496 141.99419 165.6409 141.99534 159.60938 141.99609 C 158.95704 139.21013 156.44294 137.11523 153.4668 137.11523 C 150.48986 137.11523 147.98143 139.21095 147.33203 141.99805 C 142.9406 141.99907 130.96879 142.00195 129.61133 142.00195 C 128.96125 139.21296 126.44511 137.11523 123.4668 137.11523 C 120.00139 137.11523 117.16406 139.95256 117.16406 143.41797 C 117.16406 146.88342 120.00139 149.72266 123.4668 149.72266 C 126.44443 149.72266 128.96057 147.6244 129.61133 144.83594 C 130.97427 144.83567 142.93633 144.83282 147.33203 144.83203 C 147.97939 147.62234 150.48789 149.72266 153.4668 149.72266 C 156.44658 149.72266 158.96471 147.62156 159.61328 144.83008 C 165.64605 144.8291 169.60253 144.82795 177.33008 144.82617 C 177.97524 147.61947 180.48577 149.72266 183.4668 149.72266 C 186.44937 149.72266 188.96961 147.61768 189.61523 144.82227 C 198.05264 144.8203 198.53282 144.82017 207.32812 144.81836 C 207.97038 147.61555 210.48297 149.72266 213.4668 149.72266 C 216.45217 149.72266 218.97448 147.6138 219.61719 144.81445 C 228.19547 144.81249 229.72561 144.81236 237.32617 144.81055 C 237.96551 147.61171 240.48015 149.72266 243.4668 149.72266 C 246.45414 149.72266 248.97656 147.61066 249.61719 144.80859 C 256.07501 144.80757 263.17902 144.80544 267.32422 144.80469 C 267.9613 147.60887 270.47803 149.72266 273.4668 149.72266 C 276.45694 149.72266 278.98142 147.60678 279.61914 144.80078 C 280.79053 144.80052 289.54689 144.79883 289.61133 144.79883 C 302.5338 144.79883 311.05543 140.95449 316.91797 135.1582 C 322.78055 129.36196 325.98559 121.76939 328.83203 114.34961 C 331.67846 106.92979 334.18599 99.664692 338.31055 94.396484 C 342.43519 89.128277 348.03717 85.707031 357.80664 85.707031 L 357.80664 85.6875 L 388.11914 85.671875 C 388.78475 88.439169 391.28719 90.515625 394.25 90.515625 C 397.21428 90.515625 399.7141 88.437342 400.37695 85.667969 L 418.11523 85.662109 C 418.77642 88.435413 421.28292 90.517578 424.25 90.517578 C 427.2192 90.517578 429.72304 88.43254 430.38086 85.65625 L 448.11133 85.648438 C 448.76749 88.428658 451.27797 90.517578 454.25 90.517578 C 457.224 90.517578 459.72994 88.425558 460.38281 85.642578 L 478.10938 85.634766 C 478.76059 88.421676 481.27321 90.517578 484.25 90.517578 C 487.71541 90.517578 490.55469 87.680293 490.55469 84.214844 C 490.55469 80.749395 487.71541 77.910156 484.25 77.910156 C 481.27109 77.910156 478.7564 80.010469 478.10742 82.800781 L 460.38867 82.808594 C 459.74381 80.014351 457.23171 77.910156 454.25 77.910156 C 451.26614 77.910156 448.74737 80.017225 448.10352 82.814453 L 430.39258 82.822266 C 429.75282 80.021144 427.23666 77.910156 424.25 77.910156 C 421.26119 77.910156 418.73831 80.02398 418.09961 82.828125 L 400.39648 82.833984 C 399.76194 80.025909 397.24161 77.908203 394.25 77.908203 C 391.25692 77.908203 388.72987 80.027736 388.0957 82.837891 L 230.40234 82.90625 L 230.38281 82.90625 C 220.62573 82.90247 215.03582 79.481414 210.91406 74.216797 C 206.78942 68.948589 204.27416 61.683451 201.42773 54.263672 C 198.58129 46.843892 195.37621 39.251324 189.51367 33.455078 C 183.65117 27.658832 175.13731 23.806641 162.21484 23.806641 C 162.12716 23.806641 153.02768 23.805065 151.34961 23.804688 C 150.7069 21.00538 148.1846 18.896484 145.19922 18.896484 C 142.21536 18.896484 139.70281 21.003553 139.06055 23.800781 C 133.94844 23.79961 128.84647 23.800416 121.34766 23.798828 C 120.70204 21.003414 118.18176 18.898438 115.19922 18.898438 C 112.21751 18.898438 109.70695 21.002632 109.0625 23.796875 C 100.62678 23.79491 100.09109 23.792842 91.345703 23.789062 C 90.697159 20.997617 88.178976 18.896484 85.199219 18.896484 C 82.22029 18.896484 79.711834 20.996798 79.064453 23.787109 C 70.82277 23.78522 67.816285 23.784564 61.34375 23.783203 C 60.692979 20.994743 58.176836 18.896484 55.199219 18.896484 C 52.223089 18.896484 49.716682 20.992916 49.066406 23.779297 C 44.538717 23.778276 32.019674 23.775391 31.341797 23.775391 C 30.688128 20.990861 28.17404 18.896484 25.199219 18.896484 z M 25.199219 21.734375 C 27.1327 21.734375 28.677734 23.269632 28.677734 25.203125 C 28.677734 27.13658 27.1327 28.673828 25.199219 28.673828 C 23.265741 28.673828 21.730469 27.13658 21.730469 25.203125 C 21.730469 23.269632 23.265741 21.734375 25.199219 21.734375 z M 55.199219 21.734375 C 57.132701 21.734375 58.677734 23.269632 58.677734 25.203125 C 58.677734 27.13658 57.132701 28.673828 55.199219 28.673828 C 53.265741 28.673828 51.730469 27.13658 51.730469 25.203125 C 51.730469 23.269632 53.265741 21.734375 55.199219 21.734375 z M 85.199219 21.734375 C 87.132701 21.734375 88.677734 23.269632 88.677734 25.203125 C 88.677734 27.13658 87.132701 28.673828 85.199219 28.673828 C 83.265742 28.673828 81.730469 27.13658 81.730469 25.203125 C 81.730469 23.269632 83.265742 21.734375 85.199219 21.734375 z M 115.19922 21.734375 C 117.13271 21.734375 118.67773 23.269632 118.67773 25.203125 C 118.67773 27.13658 117.13271 28.673828 115.19922 28.673828 C 113.26576 28.673828 111.73047 27.13658 111.73047 25.203125 C 111.73047 23.269632 113.26576 21.734375 115.19922 21.734375 z M 145.19922 21.734375 C 147.13271 21.734375 148.67773 23.269632 148.67773 25.203125 C 148.67773 27.13658 147.13271 28.673828 145.19922 28.673828 C 143.26576 28.673828 141.73047 27.13658 141.73047 25.203125 C 141.73047 23.269632 143.26576 21.734375 145.19922 21.734375 z M 42.384766 80.744141 C 44.318243 80.744141 45.861328 82.281351 45.861328 84.214844 C 45.861328 86.148337 44.318243 87.683594 42.384766 87.683594 C 40.451284 87.683594 38.916016 86.148337 38.916016 84.214844 C 38.916016 82.281351 40.451284 80.744141 42.384766 80.744141 z M 72.384766 80.744141 C 74.318248 80.744141 75.861328 82.281351 75.861328 84.214844 C 75.861328 86.148337 74.318248 87.683594 72.384766 87.683594 C 70.451287 87.683594 68.916016 86.148337 68.916016 84.214844 C 68.916016 82.281351 70.451287 80.744141 72.384766 80.744141 z M 102.38477 80.744141 C 104.31826 80.744141 105.86133 82.281351 105.86133 84.214844 C 105.86133 86.148337 104.31826 87.683594 102.38477 87.683594 C 100.45127 87.683594 98.916016 86.148337 98.916016 84.214844 C 98.916016 82.281351 100.45127 80.744141 102.38477 80.744141 z M 132.38477 80.744141 C 134.31825 80.744141 135.86133 82.281351 135.86133 84.214844 C 135.86133 86.148337 134.31825 87.683594 132.38477 87.683594 C 130.45127 87.683594 128.91602 86.148337 128.91602 84.214844 C 128.91602 82.281351 130.45127 80.744141 132.38477 80.744141 z M 394.25 80.744141 C 396.18349 80.744141 397.71875 82.281351 397.71875 84.214844 C 397.71875 86.148337 396.18349 87.683594 394.25 87.683594 C 392.31651 87.683594 390.77344 86.148337 390.77344 84.214844 C 390.77344 82.281351 392.31651 80.744141 394.25 80.744141 z M 424.25 80.744141 C 426.18349 80.744141 427.71875 82.281351 427.71875 84.214844 C 427.71875 86.148337 426.18349 87.683594 424.25 87.683594 C 422.31651 87.683594 420.77344 86.148337 420.77344 84.214844 C 420.77344 82.281351 422.31651 80.744141 424.25 80.744141 z M 454.25 80.744141 C 456.18346 80.744141 457.71875 82.281351 457.71875 84.214844 C 457.71875 86.148337 456.18346 87.683594 454.25 87.683594 C 452.31651 87.683594 450.77344 86.148337 450.77344 84.214844 C 450.77344 82.281351 452.31651 80.744141 454.25 80.744141 z M 484.25 80.744141 C 486.18346 80.744141 487.71875 82.281351 487.71875 84.214844 C 487.71875 86.148337 486.18346 87.683594 484.25 87.683594 C 482.31651 87.683594 480.77344 86.148337 480.77344 84.214844 C 480.77344 82.281351 482.31651 80.744141 484.25 80.744141 z M 162.38477 80.892578 C 164.31825 80.892578 165.85547 82.427873 165.85547 84.361328 C 165.85547 86.294821 164.31825 87.832031 162.38477 87.832031 C 160.45127 87.832031 158.91602 86.294821 158.91602 84.361328 C 158.91602 82.427873 160.45127 80.892578 162.38477 80.892578 z M 123.4668 139.94727 C 125.4003 139.94727 126.94531 141.48256 126.94531 143.41602 C 126.94531 145.34951 125.4003 146.88672 123.4668 146.88672 C 121.53335 146.88672 119.99805 145.34951 119.99805 143.41602 C 119.99805 141.48256 121.53335 139.94727 123.4668 139.94727 z M 153.4668 139.94727 C 155.40029 139.94727 156.94531 141.48256 156.94531 143.41602 C 156.94531 145.34951 155.40029 146.88672 153.4668 146.88672 C 151.53335 146.88672 149.99805 145.34951 149.99805 143.41602 C 149.99805 141.48256 151.53335 139.94727 153.4668 139.94727 z M 183.4668 139.94727 C 185.40029 139.94727 186.94531 141.48256 186.94531 143.41602 C 186.94531 145.34951 185.40029 146.88672 183.4668 146.88672 C 181.53335 146.88672 179.99805 145.34951 179.99805 143.41602 C 179.99805 141.48256 181.53335 139.94727 183.4668 139.94727 z M 213.4668 139.94727 C 215.40029 139.94727 216.94531 141.48256 216.94531 143.41602 C 216.94531 145.34951 215.40029 146.88672 213.4668 146.88672 C 211.53335 146.88672 209.99805 145.34951 209.99805 143.41602 C 209.99805 141.48256 211.53335 139.94727 213.4668 139.94727 z M 243.4668 139.94727 C 245.40029 139.94727 246.94531 141.48256 246.94531 143.41602 C 246.94531 145.34951 245.40029 146.88672 243.4668 146.88672 C 241.53335 146.88672 239.99805 145.34951 239.99805 143.41602 C 239.99805 141.48256 241.53335 139.94727 243.4668 139.94727 z M 273.4668 139.94727 C 275.40029 139.94727 276.94531 141.48256 276.94531 143.41602 C 276.94531 145.34951 275.40029 146.88672 273.4668 146.88672 C 271.53335 146.88672 269.99805 145.34951 269.99805 143.41602 C 269.99805 141.48256 271.53335 139.94727 273.4668 139.94727 z "
         transform="matrix(0.26458333,0,0,0.26458333,-18.802279,-165.62007)" />
      <g
         id="g1976"
         style="fill:#ffffff">
        <text
           id="text1678"
           y="-130.77901"
           x="8.9195423"
           style="font-style:normal;font-variant:normal;font-weight:normal;font-stretch:normal;font-size:11.9636px;line-height:0.85;font-family:'Autour One';-inkscape-font-specification:'Autour One, Normal';font-variant-ligatures:normal;font-variant-caps:normal;font-variant-numeric:normal;font-variant-east-asian:normal;letter-spacing:0px;word-spacing:0px;fill:#ffffff;fill-opacity:1;stroke:none;stroke-width:0.260404"
           xml:space="preserve"
           transform="rotate(-0.00843837)"><tspan
             id="tspan1676"
             style="font-style:normal;font-variant:normal;font-weight:normal;font-stretch:normal;font-size:11.9636px;font-family:'Autour One';-inkscape-font-specification:'Autour One, Normal';font-variant-ligatures:normal;font-variant-caps:normal;font-variant-numeric:normal;font-variant-east-asian:normal;fill:#ffffff;stroke-width:0.260404"
             y="-130.77901"
             x="8.9195423"
             sodipodi:role="line">SOURCE   WAY</tspan></text>
        <text
           id="text1802"
           y="-146.5439"
           x="3.326237"
           style="font-style:normal;font-variant:normal;font-weight:normal;font-stretch:normal;font-size:11.9636px;line-height:0.85;font-family:'Autour One';-inkscape-font-specification:'Autour One, Normal';font-variant-ligatures:normal;font-variant-caps:normal;font-variant-numeric:normal;font-variant-east-asian:normal;letter-spacing:0px;word-spacing:0px;fill:#ffffff;fill-opacity:1;stroke:none;stroke-width:0.260404"
           xml:space="preserve"
           transform="rotate(-0.00843837)"><tspan
             id="tspan1800"
             style="font-style:normal;font-variant:normal;font-weight:normal;font-stretch:normal;font-size:11.9636px;font-family:'Autour One';-inkscape-font-specification:'Autour One, Normal';font-variant-ligatures:normal;font-variant-caps:normal;font-variant-numeric:normal;font-variant-east-asian:normal;fill:#ffffff;stroke-width:0.260404"
             y="-146.5439"
             x="3.326237"
             sodipodi:role="line">THE   OPEN</tspan></text>
      </g>
    </g>
  </g>
</svg>
